<svg xmlns="http://www.w3.org/2000/svg" xmlns:xlink="http://www.w3.org/1999/xlink" width="1240" height="653" style="border: 1px solid black; overflow: hidden;"><defs/><g id="container"><g id="container_1" transform="matrix(0.4657,0.0000,0.0000,0.4657,67.2778,71.44)"><g id="container_2"/><g id="container_3"><text id="text" transform="matrix(1.0000,0.0000,0.0000,1.0000,320.0196,-17.70)" fill="#000000" text-anchor="middle" style="font-size:10px;font-family:Arial;">0.5</text><path d="M 320.0195636919833 -15L 320.0195636919833 1725.0000000000011" style="fill:none;stroke:#9400d3;stroke-linecap:butt;stroke-miterlimit:10;" id="shape"/><text id="text_1" transform="matrix(1.0000,0.0000,0.0000,1.0000,640.0391,-17.70)" fill="#000000" text-anchor="middle" style="font-size:10px;font-family:Arial;">1</text><path d="M 640.0391273839666 -15L 640.0391273839666 1725.0000000000011" style="fill:none;stroke:#9400d3;stroke-linecap:butt;stroke-miterlimit:10;" id="shape_1"/><text id="text_2" transform="matrix(1.0000,0.0000,0.0000,1.0000,960.0587,-17.70)" fill="#000000" text-anchor="middle" style="font-size:10px;font-family:Arial;">1.5</text><path d="M 960.0586910759499 -15L 960.0586910759499 1725.0000000000011" style="fill:none;stroke:#9400d3;stroke-linecap:butt;stroke-miterlimit:10;" id="shape_2"/><text id="text_3" transform="matrix(1.0000,0.0000,0.0000,1.0000,80.0049,-17.70)" fill="#000000" text-anchor="middle" style="font-size:10px;font-family:Arial;">0.125</text><path d="M 81.00489092299583 -15L 81.00489092299583 1725.0000000000011" style="fill:none;stroke:#ff8000;stroke-linecap:butt;stroke-miterlimit:10;" id="shape_3"/><text id="text_4" transform="matrix(1.0000,0.0000,0.0000,1.0000,160.0098,-17.70)" fill="#000000" text-anchor="middle" style="font-size:10px;font-family:Arial;">0.25</text><path d="M 161.00978184599165 -15L 161.00978184599165 1725.0000000000011" style="fill:none;stroke:#ff8000;stroke-linecap:butt;stroke-miterlimit:10;" id="shape_4"/><text id="text_5" transform="matrix(1.0000,0.0000,0.0000,1.0000,240.0147,-17.70)" fill="#000000" text-anchor="middle" style="font-size:10px;font-family:Arial;">0.375</text><path d="M 241.01467276898748 -15L 241.01467276898748 1725.0000000000011" style="fill:none;stroke:#ff8000;stroke-linecap:butt;stroke-miterlimit:10;" id="shape_5"/><text id="text_6" transform="matrix(1.0000,0.0000,0.0000,1.0000,400.0245,-17.70)" fill="#000000" text-anchor="middle" style="font-size:10px;font-family:Arial;">0.625</text><path d="M 401.02445461497916 -15L 401.02445461497916 1725.0000000000011" style="fill:none;stroke:#ff8000;stroke-linecap:butt;stroke-miterlimit:10;" id="shape_6"/><text id="text_7" transform="matrix(1.0000,0.0000,0.0000,1.0000,480.0293,-17.70)" fill="#000000" text-anchor="middle" style="font-size:10px;font-family:Arial;">0.75</text><path d="M 481.029345537975 -15L 481.029345537975 1725.0000000000011" style="fill:none;stroke:#ff8000;stroke-linecap:butt;stroke-miterlimit:10;" id="shape_7"/><text id="text_8" transform="matrix(1.0000,0.0000,0.0000,1.0000,560.0342,-17.70)" fill="#000000" text-anchor="middle" style="font-size:10px;font-family:Arial;">0.875</text><path d="M 561.0342364609709 -15L 561.0342364609709 1725.0000000000011" style="fill:none;stroke:#ff8000;stroke-linecap:butt;stroke-miterlimit:10;" id="shape_8"/><text id="text_9" transform="matrix(1.0000,0.0000,0.0000,1.0000,720.0440,-17.70)" fill="#000000" text-anchor="middle" style="font-size:10px;font-family:Arial;">1.125</text><path d="M 721.0440183069626 -15L 721.0440183069626 1725.0000000000011" style="fill:none;stroke:#ff8000;stroke-linecap:butt;stroke-miterlimit:10;" id="shape_9"/><text id="text_10" transform="matrix(1.0000,0.0000,0.0000,1.0000,800.0489,-17.70)" fill="#000000" text-anchor="middle" style="font-size:10px;font-family:Arial;">1.25</text><path d="M 801.0489092299584 -15L 801.0489092299584 1725.0000000000011" style="fill:none;stroke:#ff8000;stroke-linecap:butt;stroke-miterlimit:10;" id="shape_10"/><text id="text_11" transform="matrix(1.0000,0.0000,0.0000,1.0000,880.0538,-17.70)" fill="#000000" text-anchor="middle" style="font-size:10px;font-family:Arial;">1.375</text><path d="M 881.0538001529543 -15L 881.0538001529543 1725.0000000000011" style="fill:none;stroke:#ff8000;stroke-linecap:butt;stroke-miterlimit:10;" id="shape_11"/></g><g id="container_4"><g id="I11"><path d="M 569.1994239545447 1331.2500000000007L 557.5477036522578 1331.2500000000007M 569.1994239545447 1410.0000000000007L 569.1994239545447 1252.5000000000005" style="fill:none;stroke:#ff6600;stroke-width:2;stroke-linecap:round;stroke-miterlimit:10;" id="shape_12"/></g><g id="I95"><text id="text_12" transform="matrix(1.0000,0.0000,0.0000,1.0000,167.6122,516.60)" fill="#000000" style="font-size:20px;font-family:Arial;">NC 028793</text><path d="M 162.61223214106502 509.99999999999983L 128.22461312962952 509.99999999999983" style="fill:none;stroke:#000000;stroke-width:2;stroke-linecap:round;stroke-miterlimit:10;" id="shape_13"/></g><g id="I12"><path d="M 580.5916851953726 1410.0000000000007L 569.1994239545447 1410.0000000000007M 580.5916851953726 1485.000000000001L 580.5916851953726 1335.0000000000007" style="fill:none;stroke:#ff3800;stroke-width:2;stroke-linecap:round;stroke-miterlimit:10;" id="shape_14"/></g><g id="I83"><text id="text_13" transform="matrix(1.0000,0.0000,0.0000,1.0000,151.7386,306.60)" fill="#000000" style="font-size:20px;font-family:Arial;">NC 008249</text><path d="M 146.73856413929383 300L 106.2697541676276 300" style="fill:none;stroke:#000000;stroke-width:2;stroke-linecap:round;stroke-miterlimit:10;" id="shape_15"/></g><g id="I51"><text id="text_14" transform="matrix(1.0000,0.0000,0.0000,1.0000,523.7627,1116.60)" fill="#000000" style="font-size:20px;font-family:Arial;">NC 029993</text><path d="M 518.7627278180872 1110.0000000000002L 497.7741935302183 1110.0000000000002" style="fill:none;stroke:#000000;stroke-width:2;stroke-linecap:round;stroke-miterlimit:10;" id="shape_16"/></g><g id="I22"><text id="text_15" transform="matrix(1.0000,0.0000,0.0000,1.0000,795.3372,1686.60)" fill="#000000" style="font-size:20px;font-family:Arial;">NC 011536</text><path d="M 790.337217927076 1680.0000000000011L 663.9141613316418 1680.0000000000011" style="fill:none;stroke:#000000;stroke-width:2;stroke-linecap:round;stroke-miterlimit:10;" id="shape_17"/></g><g id="I79"><path d="M 13.519079259168535 339.37499999999994L 11.773487746271696 339.37499999999994M 13.519079259168535 386.24999999999994L 13.519079259168535 292.5" style="fill:none;stroke:#ff1400;stroke-width:2;stroke-linecap:round;stroke-miterlimit:10;" id="shape_18"/></g><g id="I73"><text id="text_16" transform="matrix(1.0000,0.0000,0.0000,1.0000,164.0267,36.60)" fill="#000000" style="font-size:20px;font-family:Arial;">NC 034246</text><path d="M 159.02666894554733 30L 6.585548193000574 30" style="fill:none;stroke:#000000;stroke-width:2;stroke-linecap:round;stroke-miterlimit:10;" id="shape_19"/></g><g id="I5"><path d="M 139.43770181713765 1112.5781250000002L 30.22574538444744 1112.5781250000002M 139.43770181713765 1178.9062500000005L 139.43770181713765 1046.2500000000002" style="fill:none;stroke:#00ff00;stroke-width:2;stroke-linecap:round;stroke-miterlimit:10;" id="shape_20"/></g><g id="I46"><text id="text_17" transform="matrix(1.0000,0.0000,0.0000,1.0000,453.9135,1026.60)" fill="#000000" style="font-size:20px;font-family:Arial;">NC 034836</text><path d="M 448.91354254181357 1020.0000000000002L 224.17477323157703 1020.0000000000002" style="fill:none;stroke:#000000;stroke-width:2;stroke-linecap:round;stroke-miterlimit:10;" id="shape_21"/></g><g id="I47"><path d="M 350.75423618857013 1072.5000000000002L 224.17477323157703 1072.5000000000002M 350.75423618857013 1095.0000000000002L 350.75423618857013 1050.0000000000002" style="fill:none;stroke:#00ff00;stroke-width:2;stroke-linecap:round;stroke-miterlimit:10;" id="shape_22"/></g><g id="I43"><text id="text_18" transform="matrix(1.0000,0.0000,0.0000,1.0000,805.0870,1296.60)" fill="#000000" style="font-size:20px;font-family:Arial;">NC 027198</text><path d="M 800.0869659564725 1290.0000000000007L 668.897845198191 1290.0000000000007" style="fill:none;stroke:#000000;stroke-width:2;stroke-linecap:round;stroke-miterlimit:10;" id="shape_23"/></g><g id="I96"><path d="M 30.258022557641418 588.7499999999998L 18.279031048349275 588.7499999999998M 30.258022557641418 622.4999999999997L 30.258022557641418 554.9999999999998" style="fill:none;stroke:#6bff00;stroke-width:2;stroke-linecap:round;stroke-miterlimit:10;" id="shape_24"/></g><g id="I113"><text id="text_19" transform="matrix(1.0000,0.0000,0.0000,1.0000,124.5156,156.60)" fill="#000000" style="font-size:20px;font-family:Arial;">NC 027703</text><path d="M 119.51556232096826 150L 43.906588132671 150" style="fill:none;stroke:#000000;stroke-width:2;stroke-linecap:round;stroke-miterlimit:10;" id="shape_25"/></g><g id="I6"><path d="M 351.6384246414859 1178.9062500000005L 139.43770181713765 1178.9062500000005M 351.6384246414859 1217.8125000000005L 351.6384246414859 1140.0000000000005" style="fill:none;stroke:#00ff00;stroke-width:2;stroke-linecap:round;stroke-miterlimit:10;" id="shape_26"/></g><g id="I81"><text id="text_20" transform="matrix(1.0000,0.0000,0.0000,1.0000,200.1305,276.60)" fill="#000000" style="font-size:20px;font-family:Arial;">NC 029691</text><path d="M 195.13048247275893 270L 26.598266026477344 270" style="fill:none;stroke:#000000;stroke-width:2;stroke-linecap:round;stroke-miterlimit:10;" id="shape_27"/></g><g id="I20"><text id="text_21" transform="matrix(1.0000,0.0000,0.0000,1.0000,807.3424,1656.60)" fill="#000000" style="font-size:20px;font-family:Arial;">NC 002618</text><path d="M 802.3424318394171 1650.0000000000011L 637.7085785109883 1650.0000000000011" style="fill:none;stroke:#000000;stroke-width:2;stroke-linecap:round;stroke-miterlimit:10;" id="shape_28"/></g><g id="I50"><text id="text_22" transform="matrix(1.0000,0.0000,0.0000,1.0000,511.5724,1086.60)" fill="#000000" style="font-size:20px;font-family:Arial;">NC 003629</text><path d="M 506.5723889885416 1080.0000000000002L 497.7741935302183 1080.0000000000002" style="fill:none;stroke:#000000;stroke-width:2;stroke-linecap:round;stroke-miterlimit:10;" id="shape_29"/></g><g id="I26"><text id="text_23" transform="matrix(1.0000,0.0000,0.0000,1.0000,837.4383,1626.60)" fill="#000000" style="font-size:20px;font-family:Arial;">NC 001696</text><path d="M 832.4382940837446 1620.000000000001L 722.0366521222469 1620.000000000001" style="fill:none;stroke:#000000;stroke-width:2;stroke-linecap:round;stroke-miterlimit:10;" id="shape_30"/></g><g id="I33"><text id="text_24" transform="matrix(1.0000,0.0000,0.0000,1.0000,798.4925,1566.60)" fill="#000000" style="font-size:20px;font-family:Arial;">NC 002568</text><path d="M 793.4924764168622 1560.000000000001L 749.9919675089513 1560.000000000001" style="fill:none;stroke:#000000;stroke-width:2;stroke-linecap:round;stroke-miterlimit:10;" id="shape_31"/></g><g id="I69"><text id="text_25" transform="matrix(1.0000,0.0000,0.0000,1.0000,152.1979,786.60)" fill="#000000" style="font-size:20px;font-family:Arial;">NC 001747</text><path d="M 147.1978754182784 779.9999999999999L 90.80903301045323 779.9999999999999" style="fill:none;stroke:#000000;stroke-width:2;stroke-linecap:round;stroke-miterlimit:10;" id="shape_32"/></g><g id="I82"><path d="M 106.2697541676276 315L 26.598266026477344 315M 106.2697541676276 330L 106.2697541676276 300" style="fill:none;stroke:#00ff00;stroke-width:2;stroke-linecap:round;stroke-miterlimit:10;" id="shape_33"/></g><g id="I106"><path d="M 109.38377493643644 202.49999999999997L 16.693302108299125 202.49999999999997M 109.38377493643644 225.00000000000003L 109.38377493643644 180" style="fill:none;stroke:#00ff00;stroke-width:2;stroke-linecap:round;stroke-miterlimit:10;" id="shape_34"/></g><g id="I44"><text id="text_26" transform="matrix(1.0000,0.0000,0.0000,1.0000,784.3782,1206.60)" fill="#000000" style="font-size:20px;font-family:Arial;">NC 011187</text><path d="M 779.3782375739221 1200.0000000000005L 557.5477036522578 1200.0000000000005" style="fill:none;stroke:#000000;stroke-width:2;stroke-linecap:round;stroke-miterlimit:10;" id="shape_35"/></g><g id="I56"><text id="text_27" transform="matrix(1.0000,0.0000,0.0000,1.0000,152.8328,906.60)" fill="#000000" style="font-size:20px;font-family:Arial;">NC 025435</text><path d="M 147.83281983420838 900.0000000000001L 13.100615277293626 900.0000000000001" style="fill:none;stroke:#000000;stroke-width:2;stroke-linecap:round;stroke-miterlimit:10;" id="shape_36"/></g><g id="I76"><text id="text_28" transform="matrix(1.0000,0.0000,0.0000,1.0000,126.3675,96.60)" fill="#000000" style="font-size:20px;font-family:Arial;">NC 006265</text><path d="M 121.36745153214105 90L 12.473824959846505 90" style="fill:none;stroke:#000000;stroke-width:2;stroke-linecap:round;stroke-miterlimit:10;" id="shape_37"/></g><g id="I80"><path d="M 26.598266026477344 292.5L 13.519079259168535 292.5M 26.598266026477344 315L 26.598266026477344 270" style="fill:none;stroke:#ffe500;stroke-width:2;stroke-linecap:round;stroke-miterlimit:10;" id="shape_38"/></g><g id="I86"><text id="text_29" transform="matrix(1.0000,0.0000,0.0000,1.0000,131.3593,366.60)" fill="#000000" style="font-size:20px;font-family:Arial;">NC 003491</text><path d="M 126.35928309678171 360L 37.32632666286262 360" style="fill:none;stroke:#000000;stroke-width:2;stroke-linecap:round;stroke-miterlimit:10;" id="shape_39"/></g><g id="I28"><text id="text_30" transform="matrix(1.0000,0.0000,0.0000,1.0000,796.8062,1476.60)" fill="#000000" style="font-size:20px;font-family:Arial;">NC 001625</text><path d="M 791.8061845291176 1470.000000000001L 662.5258908627809 1470.000000000001" style="fill:none;stroke:#000000;stroke-width:2;stroke-linecap:round;stroke-miterlimit:10;" id="shape_40"/></g><g id="I99"><text id="text_31" transform="matrix(1.0000,0.0000,0.0000,1.0000,137.4682,576.60)" fill="#000000" style="font-size:20px;font-family:Arial;">NC 016038</text><path d="M 132.46823895435836 569.9999999999998L 119.52733264052087 569.9999999999998" style="fill:none;stroke:#000000;stroke-width:2;stroke-linecap:round;stroke-miterlimit:10;" id="shape_41"/></g><g id="I102"><path d="M 120.32470618619834 644.9999999999998L 90.52148263169343 644.9999999999998M 120.32470618619834 659.9999999999998L 120.32470618619834 629.9999999999997" style="fill:none;stroke:#00ff00;stroke-width:2;stroke-linecap:round;stroke-miterlimit:10;" id="shape_42"/></g><g id="I68"><text id="text_32" transform="matrix(1.0000,0.0000,0.0000,1.0000,140.3594,756.60)" fill="#000000" style="font-size:20px;font-family:Arial;">NC 034265</text><path d="M 135.35943650135977 749.9999999999999L 90.80903301045323 749.9999999999999" style="fill:none;stroke:#000000;stroke-width:2;stroke-linecap:round;stroke-miterlimit:10;" id="shape_43"/></g><g id="I4"><path d="M 30.22574538444744 1043.7890625000002L 19.24703262499606 1043.7890625000002M 30.22574538444744 1112.5781250000002L 30.22574538444744 975.0000000000001" style="fill:none;stroke:#ffcc00;stroke-width:2;stroke-linecap:round;stroke-miterlimit:10;" id="shape_44"/></g><g id="I54"><text id="text_33" transform="matrix(1.0000,0.0000,0.0000,1.0000,186.8802,996.60)" fill="#000000" style="font-size:20px;font-family:Arial;">NC 030225</text><path d="M 181.88020044591786 990.0000000000002L 102.409236563377 990.0000000000002" style="fill:none;stroke:#000000;stroke-width:2;stroke-linecap:round;stroke-miterlimit:10;" id="shape_45"/></g><g id="I108"><text id="text_34" transform="matrix(1.0000,0.0000,0.0000,1.0000,135.2052,216.60)" fill="#000000" style="font-size:20px;font-family:Arial;">NC 021484</text><path d="M 130.20517580697157 210L 111.39425944298368 210" style="fill:none;stroke:#000000;stroke-width:2;stroke-linecap:round;stroke-miterlimit:10;" id="shape_46"/></g><g id="I88"><path d="M 78.6948652374576 434.9999999999999L 69.4713509782051 434.9999999999999M 78.6948652374576 449.9999999999999L 78.6948652374576 419.99999999999994" style="fill:none;stroke:#b3ff00;stroke-width:2;stroke-linecap:round;stroke-miterlimit:10;" id="shape_47"/></g><g id="I92"><path d="M 18.279031048349275 541.8749999999998L 11.773487746271696 541.8749999999998M 18.279031048349275 588.7499999999998L 18.279031048349275 494.99999999999983" style="fill:none;stroke:#ffcc00;stroke-width:2;stroke-linecap:round;stroke-miterlimit:10;" id="shape_48"/></g><g id="I72"><path d="M 6.585548193000574 52.5L 4.169157272257694 52.5M 6.585548193000574 75L 6.585548193000574 30" style="fill:none;stroke:#ff0000;stroke-width:2;stroke-linecap:round;stroke-miterlimit:10;" id="shape_49"/></g><g id="I27"><path d="M 662.5258908627809 1496.250000000001L 590.6991574934552 1496.250000000001M 662.5258908627809 1522.500000000001L 662.5258908627809 1470.000000000001" style="fill:none;stroke:#00ff00;stroke-width:2;stroke-linecap:round;stroke-miterlimit:10;" id="shape_50"/></g><g id="I67"><path d="M 90.80903301045323 764.9999999999999L 18.11678112955744 764.9999999999999M 90.80903301045323 779.9999999999999L 90.80903301045323 749.9999999999999" style="fill:none;stroke:#00ff00;stroke-width:2;stroke-linecap:round;stroke-miterlimit:10;" id="shape_51"/></g><g id="I101"><text id="text_35" transform="matrix(1.0000,0.0000,0.0000,1.0000,136.9171,606.60)" fill="#000000" style="font-size:20px;font-family:Arial;">NC 034207</text><path d="M 131.91706925981165 599.9999999999998L 90.52148263169343 599.9999999999998" style="fill:none;stroke:#000000;stroke-width:2;stroke-linecap:round;stroke-miterlimit:10;" id="shape_52"/></g><g id="I103"><text id="text_36" transform="matrix(1.0000,0.0000,0.0000,1.0000,145.5218,636.60)" fill="#000000" style="font-size:20px;font-family:Arial;">NC 015050</text><path d="M 140.52181929227444 629.9999999999997L 120.32470618619834 629.9999999999997" style="fill:none;stroke:#000000;stroke-width:2;stroke-linecap:round;stroke-miterlimit:10;" id="shape_53"/></g><g id="I74"><path d="M 12.473824959846505 75L 6.585548193000574 75M 12.473824959846505 90L 12.473824959846505 60" style="fill:none;stroke:#ff5700;stroke-width:2;stroke-linecap:round;stroke-miterlimit:10;" id="shape_54"/></g><g id="I91"><text id="text_37" transform="matrix(1.0000,0.0000,0.0000,1.0000,136.5214,396.60)" fill="#000000" style="font-size:20px;font-family:Arial;">NC 003688</text><path d="M 131.52141627243674 389.99999999999994L 69.4713509782051 389.99999999999994" style="fill:none;stroke:#000000;stroke-width:2;stroke-linecap:round;stroke-miterlimit:10;" id="shape_55"/></g><g id="I15"><text id="text_38" transform="matrix(1.0000,0.0000,0.0000,1.0000,838.6397,1356.60)" fill="#000000" style="font-size:20px;font-family:Arial;">NC 014509</text><path d="M 833.6397243305396 1350.0000000000007L 705.1478692636622 1350.0000000000007" style="fill:none;stroke:#000000;stroke-width:2;stroke-linecap:round;stroke-miterlimit:10;" id="shape_56"/></g><g id="I61"><path d="M 18.11678112955744 798.7499999999999L 12.200048223108016 798.7499999999999M 18.11678112955744 832.5L 18.11678112955744 764.9999999999999" style="fill:none;stroke:#ff9400;stroke-width:2;stroke-linecap:round;stroke-miterlimit:10;" id="shape_57"/></g><g id="I62"><path d="M 127.67380825738546 832.5L 18.11678112955744 832.5M 127.67380825738546 855L 127.67380825738546 809.9999999999999" style="fill:none;stroke:#00ff00;stroke-width:2;stroke-linecap:round;stroke-miterlimit:10;" id="shape_58"/></g><g id="I21"><path d="M 663.9141613316418 1695.0000000000011L 637.7085785109883 1695.0000000000011M 663.9141613316418 1710.0000000000011L 663.9141613316418 1680.0000000000011" style="fill:none;stroke:#d1ff00;stroke-width:2;stroke-linecap:round;stroke-miterlimit:10;" id="shape_59"/></g><g id="I70"><text id="text_39" transform="matrix(1.0000,0.0000,0.0000,1.0000,186.9281,6.60)" fill="#000000" style="font-size:20px;font-family:Arial;">NC 025837</text><path d="M 181.92812657577636 0L 0 0" style="fill:none;stroke:#000000;stroke-width:2;stroke-linecap:round;stroke-miterlimit:10;" id="shape_60"/></g><g id="I107"><path d="M 111.39425944298368 225.00000000000003L 109.38377493643644 225.00000000000003M 111.39425944298368 240L 111.39425944298368 210" style="fill:none;stroke:#ffeb00;stroke-width:2;stroke-linecap:round;stroke-miterlimit:10;" id="shape_61"/></g><g id="I110"><text id="text_40" transform="matrix(1.0000,0.0000,0.0000,1.0000,139.4938,186.60)" fill="#000000" style="font-size:20px;font-family:Arial;">NC 029990</text><path d="M 134.49384758548567 180L 109.38377493643644 180" style="fill:none;stroke:#000000;stroke-width:2;stroke-linecap:round;stroke-miterlimit:10;" id="shape_62"/></g><g id="I25"><text id="text_41" transform="matrix(1.0000,0.0000,0.0000,1.0000,835.4898,1596.60)" fill="#000000" style="font-size:20px;font-family:Arial;">NC 004346</text><path d="M 830.4898421694234 1590.000000000001L 722.0366521222469 1590.000000000001" style="fill:none;stroke:#000000;stroke-width:2;stroke-linecap:round;stroke-miterlimit:10;" id="shape_63"/></g><g id="I100"><path d="M 90.52148263169343 622.4999999999997L 30.258022557641418 622.4999999999997M 90.52148263169343 644.9999999999998L 90.52148263169343 599.9999999999998" style="fill:none;stroke:#00ff00;stroke-width:2;stroke-linecap:round;stroke-miterlimit:10;" id="shape_64"/></g><g id="I23"><text id="text_42" transform="matrix(1.0000,0.0000,0.0000,1.0000,850.2520,1716.60)" fill="#000000" style="font-size:20px;font-family:Arial;">NC 001575</text><path d="M 845.251979820232 1710.0000000000011L 663.9141613316418 1710.0000000000011" style="fill:none;stroke:#000000;stroke-width:2;stroke-linecap:round;stroke-miterlimit:10;" id="shape_65"/></g><g id="I89"><text id="text_43" transform="matrix(1.0000,0.0000,0.0000,1.0000,131.2276,426.60)" fill="#000000" style="font-size:20px;font-family:Arial;">NC 004756</text><path d="M 126.22757584514865 419.99999999999994L 78.6948652374576 419.99999999999994" style="fill:none;stroke:#000000;stroke-width:2;stroke-linecap:round;stroke-miterlimit:10;" id="shape_66"/></g><g id="I71"><path d="M 4.169157272257694 178.59374999999997L 0 178.59374999999997M 4.169157272257694 304.68749999999994L 4.169157272257694 52.5" style="fill:none;stroke:#ff1400;stroke-width:2;stroke-linecap:round;stroke-miterlimit:10;" id="shape_67"/></g><g id="I1"><path d="M 7.312888657359714 847.6611328125L 0 847.6611328125M 7.312888657359714 943.4472656250001L 7.312888657359714 751.8749999999998" style="fill:none;stroke:#ff2e00;stroke-width:2;stroke-linecap:round;stroke-miterlimit:10;" id="shape_68"/></g><g id="I29"><path d="M 731.3453555893541 1522.500000000001L 662.5258908627809 1522.500000000001M 731.3453555893541 1545.000000000001L 731.3453555893541 1500.000000000001" style="fill:none;stroke:#00ff00;stroke-width:2;stroke-linecap:round;stroke-miterlimit:10;" id="shape_69"/></g><g id="I37"><text id="text_44" transform="matrix(1.0000,0.0000,0.0000,1.0000,806.9877,1416.60)" fill="#000000" style="font-size:20px;font-family:Arial;">NC 018449</text><path d="M 801.987747756586 1410.0000000000007L 654.5952492404527 1410.0000000000007" style="fill:none;stroke:#000000;stroke-width:2;stroke-linecap:round;stroke-miterlimit:10;" id="shape_70"/></g><g id="I40"><text id="text_45" transform="matrix(1.0000,0.0000,0.0000,1.0000,792.4122,1236.60)" fill="#000000" style="font-size:20px;font-family:Arial;">NC 017914</text><path d="M 787.4122199137576 1230.0000000000005L 623.9719819543784 1230.0000000000005" style="fill:none;stroke:#000000;stroke-width:2;stroke-linecap:round;stroke-miterlimit:10;" id="shape_71"/></g><g id="I57"><path d="M 12.200048223108016 751.8749999999998L 7.312888657359714 751.8749999999998M 12.200048223108016 798.7499999999999L 12.200048223108016 704.9999999999998" style="fill:none;stroke:#ff5200;stroke-width:2;stroke-linecap:round;stroke-miterlimit:10;" id="shape_72"/></g><g id="I31"><path d="M 749.9919675089513 1545.000000000001L 731.3453555893541 1545.000000000001M 749.9919675089513 1560.000000000001L 749.9919675089513 1530.000000000001" style="fill:none;stroke:#24ff00;stroke-width:2;stroke-linecap:round;stroke-miterlimit:10;" id="shape_73"/></g><g id="I97"><path d="M 119.52733264052087 554.9999999999998L 30.258022557641418 554.9999999999998M 119.52733264052087 569.9999999999998L 119.52733264052087 539.9999999999998" style="fill:none;stroke:#00ff00;stroke-width:2;stroke-linecap:round;stroke-miterlimit:10;" id="shape_74"/></g><g id="I58"><path d="M 128.74211676607584 704.9999999999998L 12.200048223108016 704.9999999999998M 128.74211676607584 719.9999999999998L 128.74211676607584 689.9999999999998" style="fill:none;stroke:#00ff00;stroke-width:2;stroke-linecap:round;stroke-miterlimit:10;" id="shape_75"/></g><g id="I36"><path d="M 654.5952492404527 1425.0000000000007L 616.2995257156456 1425.0000000000007M 654.5952492404527 1440.0000000000007L 654.5952492404527 1410.0000000000007" style="fill:none;stroke:#24ff00;stroke-width:2;stroke-linecap:round;stroke-miterlimit:10;" id="shape_76"/></g><g id="I17"><path d="M 590.6991574934552 1567.500000000001L 588.1487679810032 1567.500000000001M 590.6991574934552 1638.750000000001L 590.6991574934552 1496.250000000001" style="fill:none;stroke:#ff1a00;stroke-width:2;stroke-linecap:round;stroke-miterlimit:10;" id="shape_77"/></g><g id="I53"><text id="text_46" transform="matrix(1.0000,0.0000,0.0000,1.0000,224.5238,966.60)" fill="#000000" style="font-size:20px;font-family:Arial;">NC 018571</text><path d="M 219.52380730500724 960.0000000000001L 102.409236563377 960.0000000000001" style="fill:none;stroke:#000000;stroke-width:2;stroke-linecap:round;stroke-miterlimit:10;" id="shape_78"/></g><g id="I98"><text id="text_47" transform="matrix(1.0000,0.0000,0.0000,1.0000,139.9305,546.60)" fill="#000000" style="font-size:20px;font-family:Arial;">NC 003743</text><path d="M 134.93050147936086 539.9999999999998L 119.52733264052087 539.9999999999998" style="fill:none;stroke:#000000;stroke-width:2;stroke-linecap:round;stroke-miterlimit:10;" id="shape_79"/></g><g id="I90"><text id="text_48" transform="matrix(1.0000,0.0000,0.0000,1.0000,131.5785,456.60)" fill="#000000" style="font-size:20px;font-family:Arial;">NC 010809</text><path d="M 126.57846449595436 449.9999999999999L 78.6948652374576 449.9999999999999" style="fill:none;stroke:#000000;stroke-width:2;stroke-linecap:round;stroke-miterlimit:10;" id="shape_80"/></g><g id="I55"><text id="text_49" transform="matrix(1.0000,0.0000,0.0000,1.0000,189.0550,936.60)" fill="#000000" style="font-size:20px;font-family:Arial;">NC 011543</text><path d="M 184.05500859802964 930.0000000000001L 19.24703262499606 930.0000000000001" style="fill:none;stroke:#000000;stroke-width:2;stroke-linecap:round;stroke-miterlimit:10;" id="shape_81"/></g><g id="I16"><path d="M 588.1487679810032 1485.000000000001L 580.5916851953726 1485.000000000001M 588.1487679810032 1567.500000000001L 588.1487679810032 1402.5000000000007" style="fill:none;stroke:#ff0f00;stroke-width:2;stroke-linecap:round;stroke-miterlimit:10;" id="shape_82"/></g><g id="I49"><path d="M 497.7741935302183 1095.0000000000002L 350.75423618857013 1095.0000000000002M 497.7741935302183 1110.0000000000002L 497.7741935302183 1080.0000000000002" style="fill:none;stroke:#00ff00;stroke-width:2;stroke-linecap:round;stroke-miterlimit:10;" id="shape_83"/></g><g id="I111"><path d="M 43.906588132671 135L 16.693302108299125 135M 43.906588132671 150L 43.906588132671 120" style="fill:none;stroke:#0aff00;stroke-width:2;stroke-linecap:round;stroke-miterlimit:10;" id="shape_84"/></g><g id="I0"><path d="M 0 423.83056640625L 0 423.83056640625M 0 847.6611328125L 0 0" style="fill:none;stroke:#000000;stroke-width:2;stroke-linecap:round;stroke-miterlimit:10;" id="shape_85"/></g><g id="I64"><text id="text_50" transform="matrix(1.0000,0.0000,0.0000,1.0000,176.8586,846.60)" fill="#000000" style="font-size:20px;font-family:Arial;">NC 002198</text><path d="M 171.85857659599137 840L 129.66128335730326 840" style="fill:none;stroke:#000000;stroke-width:2;stroke-linecap:round;stroke-miterlimit:10;" id="shape_86"/></g><g id="I63"><path d="M 129.66128335730326 855L 127.67380825738546 855M 129.66128335730326 870L 129.66128335730326 840" style="fill:none;stroke:#ffd100;stroke-width:2;stroke-linecap:round;stroke-miterlimit:10;" id="shape_87"/></g><g id="I84"><text id="text_51" transform="matrix(1.0000,0.0000,0.0000,1.0000,157.6014,336.60)" fill="#000000" style="font-size:20px;font-family:Arial;">NC 031747</text><path d="M 152.6014377531739 330L 106.2697541676276 330" style="fill:none;stroke:#000000;stroke-width:2;stroke-linecap:round;stroke-miterlimit:10;" id="shape_88"/></g><g id="I32"><text id="text_52" transform="matrix(1.0000,0.0000,0.0000,1.0000,785.1026,1536.60)" fill="#000000" style="font-size:20px;font-family:Arial;">NC 004060</text><path d="M 780.1026466590778 1530.000000000001L 749.9919675089513 1530.000000000001" style="fill:none;stroke:#000000;stroke-width:2;stroke-linecap:round;stroke-miterlimit:10;" id="shape_89"/></g><g id="I8"><path d="M 492.4273450624002 1217.8125000000005L 351.6384246414859 1217.8125000000005M 492.4273450624002 1265.6250000000007L 492.4273450624002 1170.0000000000005" style="fill:none;stroke:#00ff00;stroke-width:2;stroke-linecap:round;stroke-miterlimit:10;" id="shape_90"/></g><g id="I39"><path d="M 623.9719819543784 1252.5000000000005L 569.1994239545447 1252.5000000000005M 623.9719819543784 1275.0000000000005L 623.9719819543784 1230.0000000000005" style="fill:none;stroke:#1aff00;stroke-width:2;stroke-linecap:round;stroke-miterlimit:10;" id="shape_91"/></g><g id="I2"><path d="M 13.100615277293626 943.4472656250001L 7.312888657359714 943.4472656250001M 13.100615277293626 986.8945312500001L 13.100615277293626 900.0000000000001" style="fill:none;stroke:#ff3300;stroke-width:2;stroke-linecap:round;stroke-miterlimit:10;" id="shape_92"/></g><g id="I42"><text id="text_53" transform="matrix(1.0000,0.0000,0.0000,1.0000,805.3036,1266.60)" fill="#000000" style="font-size:20px;font-family:Arial;">NC 003747</text><path d="M 800.3036384022657 1260.0000000000005L 668.897845198191 1260.0000000000005" style="fill:none;stroke:#000000;stroke-width:2;stroke-linecap:round;stroke-miterlimit:10;" id="shape_93"/></g><g id="I35"><text id="text_54" transform="matrix(1.0000,0.0000,0.0000,1.0000,813.0684,1386.60)" fill="#000000" style="font-size:20px;font-family:Arial;">NC 029578</text><path d="M 808.0684394862975 1380.0000000000007L 616.2995257156456 1380.0000000000007" style="fill:none;stroke:#000000;stroke-width:2;stroke-linecap:round;stroke-miterlimit:10;" id="shape_94"/></g><g id="I18"><path d="M 617.4196773936542 1638.750000000001L 590.6991574934552 1638.750000000001M 617.4196773936542 1672.5000000000011L 617.4196773936542 1605.000000000001" style="fill:none;stroke:#dbff00;stroke-width:2;stroke-linecap:round;stroke-miterlimit:10;" id="shape_95"/></g><g id="I59"><text id="text_55" transform="matrix(1.0000,0.0000,0.0000,1.0000,192.6570,696.60)" fill="#000000" style="font-size:20px;font-family:Arial;">NC 000874</text><path d="M 187.65704640068623 689.9999999999998L 128.74211676607584 689.9999999999998" style="fill:none;stroke:#000000;stroke-width:2;stroke-linecap:round;stroke-miterlimit:10;" id="shape_96"/></g><g id="I104"><text id="text_56" transform="matrix(1.0000,0.0000,0.0000,1.0000,142.3266,666.60)" fill="#000000" style="font-size:20px;font-family:Arial;">NC 010732</text><path d="M 137.32656475741803 659.9999999999998L 120.32470618619834 659.9999999999998" style="fill:none;stroke:#000000;stroke-width:2;stroke-linecap:round;stroke-miterlimit:10;" id="shape_97"/></g><g id="I75"><text id="text_57" transform="matrix(1.0000,0.0000,0.0000,1.0000,162.8414,66.60)" fill="#000000" style="font-size:20px;font-family:Arial;">NC 002766</text><path d="M 157.84140608711007 60L 12.473824959846505 60" style="fill:none;stroke:#000000;stroke-width:2;stroke-linecap:round;stroke-miterlimit:10;" id="shape_98"/></g><g id="I10"><path d="M 557.5477036522578 1265.6250000000007L 492.4273450624002 1265.6250000000007M 557.5477036522578 1331.2500000000007L 557.5477036522578 1200.0000000000005" style="fill:none;stroke:#0aff00;stroke-width:2;stroke-linecap:round;stroke-miterlimit:10;" id="shape_99"/></g><g id="I30"><text id="text_58" transform="matrix(1.0000,0.0000,0.0000,1.0000,774.8972,1506.60)" fill="#000000" style="font-size:20px;font-family:Arial;">NC 016033</text><path d="M 769.8971971713752 1500.000000000001L 731.3453555893541 1500.000000000001" style="fill:none;stroke:#000000;stroke-width:2;stroke-linecap:round;stroke-miterlimit:10;" id="shape_100"/></g><g id="I7"><text id="text_59" transform="matrix(1.0000,0.0000,0.0000,1.0000,1005.0000,1146.60)" fill="#000000" style="font-size:20px;font-family:Arial;">NC 001633</text><path d="M 1000 1140.0000000000005L 351.6384246414859 1140.0000000000005" style="fill:none;stroke:#000000;stroke-width:2;stroke-linecap:round;stroke-miterlimit:10;" id="shape_101"/></g><g id="I85"><path d="M 37.32632666286262 386.24999999999994L 13.519079259168535 386.24999999999994M 37.32632666286262 412.4999999999999L 37.32632666286262 360" style="fill:none;stroke:#1fff00;stroke-width:2;stroke-linecap:round;stroke-miterlimit:10;" id="shape_102"/></g><g id="I87"><path d="M 69.4713509782051 412.4999999999999L 37.32632666286262 412.4999999999999M 69.4713509782051 434.9999999999999L 69.4713509782051 389.99999999999994" style="fill:none;stroke:#00ff00;stroke-width:2;stroke-linecap:round;stroke-miterlimit:10;" id="shape_103"/></g><g id="I41"><path d="M 668.897845198191 1275.0000000000005L 623.9719819543784 1275.0000000000005M 668.897845198191 1290.0000000000007L 668.897845198191 1260.0000000000005" style="fill:none;stroke:#0fff00;stroke-width:2;stroke-linecap:round;stroke-miterlimit:10;" id="shape_104"/></g><g id="I94"><text id="text_60" transform="matrix(1.0000,0.0000,0.0000,1.0000,164.8534,486.60)" fill="#000000" style="font-size:20px;font-family:Arial;">NC 034247</text><path d="M 159.85339468560664 479.99999999999983L 128.22461312962952 479.99999999999983" style="fill:none;stroke:#000000;stroke-width:2;stroke-linecap:round;stroke-miterlimit:10;" id="shape_105"/></g><g id="I65"><text id="text_61" transform="matrix(1.0000,0.0000,0.0000,1.0000,178.7890,876.60)" fill="#000000" style="font-size:20px;font-family:Arial;">NC 012931</text><path d="M 173.789017809268 870L 129.66128335730326 870" style="fill:none;stroke:#000000;stroke-width:2;stroke-linecap:round;stroke-miterlimit:10;" id="shape_106"/></g><g id="I77"><path d="M 7.108594568290025 304.68749999999994L 4.169157272257694 304.68749999999994M 7.108594568290025 440.6249999999999L 7.108594568290025 168.75" style="fill:none;stroke:#ff0000;stroke-width:2;stroke-linecap:round;stroke-miterlimit:10;" id="shape_107"/></g><g id="I13"><path d="M 705.1478692636622 1335.0000000000007L 580.5916851953726 1335.0000000000007M 705.1478692636622 1350.0000000000007L 705.1478692636622 1320.0000000000007" style="fill:none;stroke:#00ff00;stroke-width:2;stroke-linecap:round;stroke-miterlimit:10;" id="shape_108"/></g><g id="I105"><path d="M 16.693302108299125 168.75L 7.108594568290025 168.75M 16.693302108299125 202.49999999999997L 16.693302108299125 135" style="fill:none;stroke:#ffcc00;stroke-width:2;stroke-linecap:round;stroke-miterlimit:10;" id="shape_109"/></g><g id="I34"><path d="M 616.2995257156456 1402.5000000000007L 588.1487679810032 1402.5000000000007M 616.2995257156456 1425.0000000000007L 616.2995257156456 1380.0000000000007" style="fill:none;stroke:#bdff00;stroke-width:2;stroke-linecap:round;stroke-miterlimit:10;" id="shape_110"/></g><g id="I52"><path d="M 102.409236563377 975.0000000000001L 30.22574538444744 975.0000000000001M 102.409236563377 990.0000000000002L 102.409236563377 960.0000000000001" style="fill:none;stroke:#00ff00;stroke-width:2;stroke-linecap:round;stroke-miterlimit:10;" id="shape_111"/></g><g id="I19"><path d="M 637.7085785109883 1672.5000000000011L 617.4196773936542 1672.5000000000011M 637.7085785109883 1695.0000000000011L 637.7085785109883 1650.0000000000011" style="fill:none;stroke:#7aff00;stroke-width:2;stroke-linecap:round;stroke-miterlimit:10;" id="shape_112"/></g><g id="I24"><path d="M 722.0366521222469 1605.000000000001L 617.4196773936542 1605.000000000001M 722.0366521222469 1620.000000000001L 722.0366521222469 1590.000000000001" style="fill:none;stroke:#00ff00;stroke-width:2;stroke-linecap:round;stroke-miterlimit:10;" id="shape_113"/></g><g id="I66"><text id="text_62" transform="matrix(1.0000,0.0000,0.0000,1.0000,168.2810,816.60)" fill="#000000" style="font-size:20px;font-family:Arial;">NC 004751</text><path d="M 163.28098342370347 809.9999999999999L 127.67380825738546 809.9999999999999" style="fill:none;stroke:#000000;stroke-width:2;stroke-linecap:round;stroke-miterlimit:10;" id="shape_114"/></g><g id="I93"><path d="M 128.22461312962952 494.99999999999983L 18.279031048349275 494.99999999999983M 128.22461312962952 509.99999999999983L 128.22461312962952 479.99999999999983" style="fill:none;stroke:#00ff00;stroke-width:2;stroke-linecap:round;stroke-miterlimit:10;" id="shape_115"/></g><g id="I60"><text id="text_63" transform="matrix(1.0000,0.0000,0.0000,1.0000,186.4677,726.60)" fill="#000000" style="font-size:20px;font-family:Arial;">NC 035451</text><path d="M 181.46765042557996 719.9999999999998L 128.74211676607584 719.9999999999998" style="fill:none;stroke:#000000;stroke-width:2;stroke-linecap:round;stroke-miterlimit:10;" id="shape_116"/></g><g id="I45"><path d="M 224.17477323157703 1046.2500000000002L 139.43770181713765 1046.2500000000002M 224.17477323157703 1072.5000000000002L 224.17477323157703 1020.0000000000002" style="fill:none;stroke:#05ff00;stroke-width:2;stroke-linecap:round;stroke-miterlimit:10;" id="shape_117"/></g><g id="I9"><text id="text_64" transform="matrix(1.0000,0.0000,0.0000,1.0000,739.3986,1176.60)" fill="#000000" style="font-size:20px;font-family:Arial;">NC 004553</text><path d="M 734.3985534398878 1170.0000000000005L 492.4273450624002 1170.0000000000005" style="fill:none;stroke:#000000;stroke-width:2;stroke-linecap:round;stroke-miterlimit:10;" id="shape_118"/></g><g id="I14"><text id="text_65" transform="matrix(1.0000,0.0000,0.0000,1.0000,868.7039,1326.60)" fill="#000000" style="font-size:20px;font-family:Arial;">NC 033706</text><path d="M 863.7039046380614 1320.0000000000007L 705.1478692636622 1320.0000000000007" style="fill:none;stroke:#000000;stroke-width:2;stroke-linecap:round;stroke-miterlimit:10;" id="shape_119"/></g><g id="I3"><path d="M 19.24703262499606 986.8945312500001L 13.100615277293626 986.8945312500001M 19.24703262499606 1043.7890625000002L 19.24703262499606 930.0000000000001" style="fill:none;stroke:#ff7f00;stroke-width:2;stroke-linecap:round;stroke-miterlimit:10;" id="shape_120"/></g><g id="I78"><path d="M 11.773487746271696 440.6249999999999L 7.108594568290025 440.6249999999999M 11.773487746271696 541.8749999999998L 11.773487746271696 339.37499999999994" style="fill:none;stroke:#ff0500;stroke-width:2;stroke-linecap:round;stroke-miterlimit:10;" id="shape_121"/></g><g id="I109"><text id="text_66" transform="matrix(1.0000,0.0000,0.0000,1.0000,136.3401,246.60)" fill="#000000" style="font-size:20px;font-family:Arial;">NC 029906</text><path d="M 131.34010598843136 240L 111.39425944298368 240" style="fill:none;stroke:#000000;stroke-width:2;stroke-linecap:round;stroke-miterlimit:10;" id="shape_122"/></g><g id="I38"><text id="text_67" transform="matrix(1.0000,0.0000,0.0000,1.0000,828.1757,1446.60)" fill="#000000" style="font-size:20px;font-family:Arial;">NC 027123</text><path d="M 823.1756798342002 1440.0000000000007L 654.5952492404527 1440.0000000000007" style="fill:none;stroke:#000000;stroke-width:2;stroke-linecap:round;stroke-miterlimit:10;" id="shape_123"/></g><g id="I112"><text id="text_68" transform="matrix(1.0000,0.0000,0.0000,1.0000,117.7923,126.60)" fill="#000000" style="font-size:20px;font-family:Arial;">NC 014545</text><path d="M 112.79233531127613 120L 43.906588132671 120" style="fill:none;stroke:#000000;stroke-width:2;stroke-linecap:round;stroke-miterlimit:10;" id="shape_124"/></g><g id="I48"><text id="text_69" transform="matrix(1.0000,0.0000,0.0000,1.0000,508.6487,1056.60)" fill="#000000" style="font-size:20px;font-family:Arial;">NC 021564</text><path d="M 503.6487414577819 1050.0000000000002L 350.75423618857013 1050.0000000000002" style="fill:none;stroke:#000000;stroke-width:2;stroke-linecap:round;stroke-miterlimit:10;" id="shape_125"/></g></g><g id="container_5"/><g id="container_6"><path d="M 1111.181640625 1245.0000000000005L 1136.181640625 1245.0000000000005L 1136.181640625 1215.0000000000005L 1111.181640625 1215.0000000000005L 1111.181640625 1245.0000000000005" style="fill:#ff0000;stroke:#ff0000;stroke-linecap:butt;stroke-miterlimit:10;" id="shape_126"/><path d="M 1111.181640625 1275.0000000000005L 1136.181640625 1275.0000000000005L 1136.181640625 1245.0000000000005L 1111.181640625 1245.0000000000005L 1111.181640625 1275.0000000000005" style="fill:#ff0000;stroke:#ff0000;stroke-linecap:butt;stroke-miterlimit:10;" id="shape_127"/><path d="M 1111.181640625 1065.0000000000002L 1136.181640625 1065.0000000000002L 1136.181640625 1035.0000000000002L 1111.181640625 1035.0000000000002L 1111.181640625 1065.0000000000002" style="fill:#00ff00;stroke:#00ff00;stroke-linecap:butt;stroke-miterlimit:10;" id="shape_128"/><path d="M 1111.181640625 15L 1136.181640625 15L 1136.181640625 -15L 1111.181640625 -15L 1111.181640625 15" style="fill:#00ff00;stroke:#00ff00;stroke-linecap:butt;stroke-miterlimit:10;" id="shape_129"/><path d="M 1111.181640625 1035.0000000000002L 1136.181640625 1035.0000000000002L 1136.181640625 1005.0000000000002L 1111.181640625 1005.0000000000002L 1111.181640625 1035.0000000000002" style="fill:#00ff00;stroke:#00ff00;stroke-linecap:butt;stroke-miterlimit:10;" id="shape_130"/><path d="M 1111.181640625 704.9999999999998L 1136.181640625 704.9999999999998L 1136.181640625 674.9999999999998L 1111.181640625 674.9999999999998L 1111.181640625 704.9999999999998" style="fill:#00ff00;stroke:#00ff00;stroke-linecap:butt;stroke-miterlimit:10;" id="shape_131"/><path d="M 1111.181640625 1215.0000000000005L 1136.181640625 1215.0000000000005L 1136.181640625 1185.0000000000005L 1111.181640625 1185.0000000000005L 1111.181640625 1215.0000000000005" style="fill:#ff0000;stroke:#ff0000;stroke-linecap:butt;stroke-miterlimit:10;" id="shape_132"/><path d="M 1111.181640625 945.0000000000001L 1136.181640625 945.0000000000001L 1136.181640625 915.0000000000001L 1111.181640625 915.0000000000001L 1111.181640625 945.0000000000001" style="fill:#ff0000;stroke:#ff0000;stroke-linecap:butt;stroke-miterlimit:10;" id="shape_133"/><path d="M 1111.181640625 554.9999999999998L 1136.181640625 554.9999999999998L 1136.181640625 524.9999999999998L 1111.181640625 524.9999999999998L 1111.181640625 554.9999999999998" style="fill:#00ff00;stroke:#00ff00;stroke-linecap:butt;stroke-miterlimit:10;" id="shape_134"/><path d="M 1111.181640625 915.0000000000001L 1136.181640625 915.0000000000001L 1136.181640625 885L 1111.181640625 885L 1111.181640625 915.0000000000001" style="fill:#00ff00;stroke:#00ff00;stroke-linecap:butt;stroke-miterlimit:10;" id="shape_135"/><path d="M 1111.181640625 764.9999999999999L 1136.181640625 764.9999999999999L 1136.181640625 734.9999999999999L 1111.181640625 734.9999999999999L 1111.181640625 764.9999999999999" style="fill:#00ff00;stroke:#00ff00;stroke-linecap:butt;stroke-miterlimit:10;" id="shape_136"/><path d="M 1111.181640625 975.0000000000001L 1136.181640625 975.0000000000001L 1136.181640625 945.0000000000001L 1111.181640625 945.0000000000001L 1111.181640625 975.0000000000001" style="fill:#00ff00;stroke:#00ff00;stroke-linecap:butt;stroke-miterlimit:10;" id="shape_137"/><path d="M 1111.181640625 494.9999999999999L 1136.181640625 494.9999999999999L 1136.181640625 464.99999999999983L 1111.181640625 464.99999999999983L 1111.181640625 494.9999999999999" style="fill:#00ff00;stroke:#00ff00;stroke-linecap:butt;stroke-miterlimit:10;" id="shape_138"/><path d="M 1111.181640625 45L 1136.181640625 45L 1136.181640625 15L 1111.181640625 15L 1111.181640625 45" style="fill:#00ff00;stroke:#00ff00;stroke-linecap:butt;stroke-miterlimit:10;" id="shape_139"/><path d="M 1111.181640625 75L 1136.181640625 75L 1136.181640625 45L 1111.181640625 45L 1111.181640625 75" style="fill:#00ff00;stroke:#00ff00;stroke-linecap:butt;stroke-miterlimit:10;" id="shape_140"/><path d="M 1111.181640625 194.99999999999997L 1136.181640625 194.99999999999997L 1136.181640625 165L 1111.181640625 165L 1111.181640625 194.99999999999997" style="fill:#00ff00;stroke:#00ff00;stroke-linecap:butt;stroke-miterlimit:10;" id="shape_141"/><path d="M 1111.181640625 855L 1136.181640625 855L 1136.181640625 825L 1111.181640625 825L 1111.181640625 855" style="fill:#00ff00;stroke:#00ff00;stroke-linecap:butt;stroke-miterlimit:10;" id="shape_142"/><path d="M 1111.181640625 825L 1136.181640625 825L 1136.181640625 794.9999999999999L 1111.181640625 794.9999999999999L 1111.181640625 825" style="fill:#00ff00;stroke:#00ff00;stroke-linecap:butt;stroke-miterlimit:10;" id="shape_143"/><path d="M 1111.181640625 224.99999999999997L 1136.181640625 224.99999999999997L 1136.181640625 195L 1111.181640625 195L 1111.181640625 224.99999999999997" style="fill:#00ff00;stroke:#00ff00;stroke-linecap:butt;stroke-miterlimit:10;" id="shape_144"/><path d="M 1111.181640625 734.9999999999999L 1136.181640625 734.9999999999999L 1136.181640625 704.9999999999998L 1111.181640625 704.9999999999998L 1111.181640625 734.9999999999999" style="fill:#00ff00;stroke:#00ff00;stroke-linecap:butt;stroke-miterlimit:10;" id="shape_145"/><path d="M 1111.181640625 524.9999999999999L 1136.181640625 524.9999999999999L 1136.181640625 494.99999999999983L 1111.181640625 494.99999999999983L 1111.181640625 524.9999999999999" style="fill:#00ff00;stroke:#00ff00;stroke-linecap:butt;stroke-miterlimit:10;" id="shape_146"/><path d="M 1111.181640625 1515.000000000001L 1136.181640625 1515.000000000001L 1136.181640625 1485.000000000001L 1111.181640625 1485.000000000001L 1111.181640625 1515.000000000001" style="fill:#ff0000;stroke:#ff0000;stroke-linecap:butt;stroke-miterlimit:10;" id="shape_147"/><path d="M 1111.181640625 1425.0000000000007L 1136.181640625 1425.0000000000007L 1136.181640625 1395.0000000000007L 1111.181640625 1395.0000000000007L 1111.181640625 1425.0000000000007" style="fill:#ff0000;stroke:#ff0000;stroke-linecap:butt;stroke-miterlimit:10;" id="shape_148"/><path d="M 1111.181640625 404.99999999999994L 1136.181640625 404.99999999999994L 1136.181640625 374.99999999999994L 1111.181640625 374.99999999999994L 1111.181640625 404.99999999999994" style="fill:#00ff00;stroke:#00ff00;stroke-linecap:butt;stroke-miterlimit:10;" id="shape_149"/><path d="M 1111.181640625 1005.0000000000002L 1136.181640625 1005.0000000000002L 1136.181640625 975.0000000000001L 1111.181640625 975.0000000000001L 1111.181640625 1005.0000000000002" style="fill:#00ff00;stroke:#00ff00;stroke-linecap:butt;stroke-miterlimit:10;" id="shape_150"/><path d="M 1111.181640625 644.9999999999998L 1136.181640625 644.9999999999998L 1136.181640625 614.9999999999997L 1111.181640625 614.9999999999997L 1111.181640625 644.9999999999998" style="fill:#00ff00;stroke:#00ff00;stroke-linecap:butt;stroke-miterlimit:10;" id="shape_151"/><path d="M 1111.181640625 1095.0000000000002L 1136.181640625 1095.0000000000002L 1136.181640625 1065.0000000000002L 1111.181640625 1065.0000000000002L 1111.181640625 1095.0000000000002" style="fill:#00ff00;stroke:#00ff00;stroke-linecap:butt;stroke-miterlimit:10;" id="shape_152"/><path d="M 1111.181640625 375L 1136.181640625 375L 1136.181640625 344.99999999999994L 1111.181640625 344.99999999999994L 1111.181640625 375" style="fill:#00ff00;stroke:#00ff00;stroke-linecap:butt;stroke-miterlimit:10;" id="shape_153"/><path d="M 1111.181640625 1485.000000000001L 1136.181640625 1485.000000000001L 1136.181640625 1455.0000000000007L 1111.181640625 1455.0000000000007L 1111.181640625 1485.000000000001" style="fill:#ff0000;stroke:#ff0000;stroke-linecap:butt;stroke-miterlimit:10;" id="shape_154"/><path d="M 1111.181640625 434.99999999999994L 1136.181640625 434.99999999999994L 1136.181640625 404.9999999999999L 1111.181640625 404.9999999999999L 1111.181640625 434.99999999999994" style="fill:#00ff00;stroke:#00ff00;stroke-linecap:butt;stroke-miterlimit:10;" id="shape_155"/><path d="M 1111.181640625 1305.0000000000007L 1136.181640625 1305.0000000000007L 1136.181640625 1275.0000000000005L 1111.181640625 1275.0000000000005L 1111.181640625 1305.0000000000007" style="fill:#ff0000;stroke:#ff0000;stroke-linecap:butt;stroke-miterlimit:10;" id="shape_156"/><path d="M 1111.181640625 1395.0000000000007L 1136.181640625 1395.0000000000007L 1136.181640625 1365.0000000000007L 1111.181640625 1365.0000000000007L 1111.181640625 1395.0000000000007" style="fill:#ff0000;stroke:#ff0000;stroke-linecap:butt;stroke-miterlimit:10;" id="shape_157"/><path d="M 1111.181640625 584.9999999999998L 1136.181640625 584.9999999999998L 1136.181640625 554.9999999999998L 1111.181640625 554.9999999999998L 1111.181640625 584.9999999999998" style="fill:#00ff00;stroke:#00ff00;stroke-linecap:butt;stroke-miterlimit:10;" id="shape_158"/><path d="M 1111.181640625 135L 1136.181640625 135L 1136.181640625 105L 1111.181640625 105L 1111.181640625 135" style="fill:#00ff00;stroke:#00ff00;stroke-linecap:butt;stroke-miterlimit:10;" id="shape_159"/><path d="M 1111.181640625 315L 1136.181640625 315L 1136.181640625 285L 1111.181640625 285L 1111.181640625 315" style="fill:#00ff00;stroke:#00ff00;stroke-linecap:butt;stroke-miterlimit:10;" id="shape_160"/><path d="M 1111.181640625 1155.0000000000005L 1136.181640625 1155.0000000000005L 1136.181640625 1125.0000000000005L 1111.181640625 1125.0000000000005L 1111.181640625 1155.0000000000005" style="fill:#0000ff;stroke:#0000ff;stroke-linecap:butt;stroke-miterlimit:10;" id="shape_161"/><path d="M 1111.181640625 1335.0000000000007L 1136.181640625 1335.0000000000007L 1136.181640625 1305.0000000000007L 1111.181640625 1305.0000000000007L 1111.181640625 1335.0000000000007" style="fill:#ff0000;stroke:#ff0000;stroke-linecap:butt;stroke-miterlimit:10;" id="shape_162"/><path d="M 1111.181640625 1665.0000000000011L 1136.181640625 1665.0000000000011L 1136.181640625 1635.0000000000011L 1111.181640625 1635.0000000000011L 1111.181640625 1665.0000000000011" style="fill:#ff0000;stroke:#ff0000;stroke-linecap:butt;stroke-miterlimit:10;" id="shape_163"/><path d="M 1111.181640625 614.9999999999998L 1136.181640625 614.9999999999998L 1136.181640625 584.9999999999997L 1111.181640625 584.9999999999997L 1111.181640625 614.9999999999998" style="fill:#00ff00;stroke:#00ff00;stroke-linecap:butt;stroke-miterlimit:10;" id="shape_164"/><path d="M 1111.181640625 1455.0000000000007L 1136.181640625 1455.0000000000007L 1136.181640625 1425.0000000000007L 1111.181640625 1425.0000000000007L 1111.181640625 1455.0000000000007" style="fill:#ff0000;stroke:#ff0000;stroke-linecap:butt;stroke-miterlimit:10;" id="shape_165"/><path d="M 1111.181640625 794.9999999999999L 1136.181640625 794.9999999999999L 1136.181640625 764.9999999999999L 1111.181640625 764.9999999999999L 1111.181640625 794.9999999999999" style="fill:#00ff00;stroke:#00ff00;stroke-linecap:butt;stroke-miterlimit:10;" id="shape_166"/><path d="M 1111.181640625 1185.0000000000005L 1136.181640625 1185.0000000000005L 1136.181640625 1155.0000000000005L 1111.181640625 1155.0000000000005L 1111.181640625 1185.0000000000005" style="fill:#ff0000;stroke:#ff0000;stroke-linecap:butt;stroke-miterlimit:10;" id="shape_167"/><path d="M 1111.181640625 345.00000000000006L 1136.181640625 345.00000000000006L 1136.181640625 315L 1111.181640625 315L 1111.181640625 345.00000000000006" style="fill:#00ff00;stroke:#00ff00;stroke-linecap:butt;stroke-miterlimit:10;" id="shape_168"/><path d="M 1111.181640625 1605.000000000001L 1136.181640625 1605.000000000001L 1136.181640625 1575.000000000001L 1111.181640625 1575.000000000001L 1111.181640625 1605.000000000001" style="fill:#ff0000;stroke:#ff0000;stroke-linecap:butt;stroke-miterlimit:10;" id="shape_169"/><path d="M 1111.181640625 674.9999999999998L 1136.181640625 674.9999999999998L 1136.181640625 644.9999999999998L 1111.181640625 644.9999999999998L 1111.181640625 674.9999999999998" style="fill:#00ff00;stroke:#00ff00;stroke-linecap:butt;stroke-miterlimit:10;" id="shape_170"/><path d="M 1111.181640625 1125.0000000000005L 1136.181640625 1125.0000000000005L 1136.181640625 1095.0000000000002L 1111.181640625 1095.0000000000002L 1111.181640625 1125.0000000000005" style="fill:#00ff00;stroke:#00ff00;stroke-linecap:butt;stroke-miterlimit:10;" id="shape_171"/><path d="M 1111.181640625 285L 1136.181640625 285L 1136.181640625 255.00000000000003L 1111.181640625 255.00000000000003L 1111.181640625 285" style="fill:#00ff00;stroke:#00ff00;stroke-linecap:butt;stroke-miterlimit:10;" id="shape_172"/><path d="M 1111.181640625 1635.0000000000011L 1136.181640625 1635.0000000000011L 1136.181640625 1605.000000000001L 1111.181640625 1605.000000000001L 1111.181640625 1635.0000000000011" style="fill:#ff0000;stroke:#ff0000;stroke-linecap:butt;stroke-miterlimit:10;" id="shape_173"/><path d="M 1111.181640625 1545.000000000001L 1136.181640625 1545.000000000001L 1136.181640625 1515.000000000001L 1111.181640625 1515.000000000001L 1111.181640625 1545.000000000001" style="fill:#ff0000;stroke:#ff0000;stroke-linecap:butt;stroke-miterlimit:10;" id="shape_174"/><path d="M 1111.181640625 1695.0000000000011L 1136.181640625 1695.0000000000011L 1136.181640625 1665.0000000000011L 1111.181640625 1665.0000000000011L 1111.181640625 1695.0000000000011" style="fill:#ff0000;stroke:#ff0000;stroke-linecap:butt;stroke-miterlimit:10;" id="shape_175"/><path d="M 1111.181640625 1575.000000000001L 1136.181640625 1575.000000000001L 1136.181640625 1545.000000000001L 1111.181640625 1545.000000000001L 1111.181640625 1575.000000000001" style="fill:#ff0000;stroke:#ff0000;stroke-linecap:butt;stroke-miterlimit:10;" id="shape_176"/><path d="M 1111.181640625 105L 1136.181640625 105L 1136.181640625 75L 1111.181640625 75L 1111.181640625 105" style="fill:#00ff00;stroke:#00ff00;stroke-linecap:butt;stroke-miterlimit:10;" id="shape_177"/><path d="M 1111.181640625 1725.0000000000011L 1136.181640625 1725.0000000000011L 1136.181640625 1695.0000000000011L 1111.181640625 1695.0000000000011L 1111.181640625 1725.0000000000011" style="fill:#ff0000;stroke:#ff0000;stroke-linecap:butt;stroke-miterlimit:10;" id="shape_178"/><path d="M 1111.181640625 885L 1136.181640625 885L 1136.181640625 855L 1111.181640625 855L 1111.181640625 885" style="fill:#00ff00;stroke:#00ff00;stroke-linecap:butt;stroke-miterlimit:10;" id="shape_179"/><path d="M 1111.181640625 464.9999999999999L 1136.181640625 464.9999999999999L 1136.181640625 434.9999999999999L 1111.181640625 434.9999999999999L 1111.181640625 464.9999999999999" style="fill:#00ff00;stroke:#00ff00;stroke-linecap:butt;stroke-miterlimit:10;" id="shape_180"/><path d="M 1111.181640625 165L 1136.181640625 165L 1136.181640625 135L 1111.181640625 135L 1111.181640625 165" style="fill:#00ff00;stroke:#00ff00;stroke-linecap:butt;stroke-miterlimit:10;" id="shape_181"/><path d="M 1111.181640625 1365.0000000000007L 1136.181640625 1365.0000000000007L 1136.181640625 1335.0000000000007L 1111.181640625 1335.0000000000007L 1111.181640625 1365.0000000000007" style="fill:#ff0000;stroke:#ff0000;stroke-linecap:butt;stroke-miterlimit:10;" id="shape_182"/><path d="M 1111.181640625 254.99999999999997L 1136.181640625 254.99999999999997L 1136.181640625 225.00000000000003L 1111.181640625 225.00000000000003L 1111.181640625 254.99999999999997" style="fill:#00ff00;stroke:#00ff00;stroke-linecap:butt;stroke-miterlimit:10;" id="shape_183"/></g><g id="container_7"/><g id="container_8"/><g id="container_9"/></g><g id="container_10" transform="matrix(1.0000,0.0000,0.0000,1.0000,100.0000,100.00)"/><g id="container_11" transform="matrix(1.0000,0.0000,0.0000,1.0000,45.0000,36.00)"><path d="M 0 -3L 0 3M 0 0L 64.00391273839666 0M 64.00391273839666 -3L 64.00391273839666 3" style="fill:none;stroke:#000;stroke-width:0.5;stroke-linecap:round;stroke-miterlimit:10;" id="shape_185" transform="matrix(0.4657,0.0000,0.0000,1.0000,105.7373,8.00)"/><text id="text_70" transform="matrix(1.0000,0.0000,0.0000,1.0000,0.0000,10.22)" fill="#555" style="font-weight:bold;font-size:14px;font-family:Arial;">Tree scale: 0.1</text></g></g></svg>