<svg version="1.1" xmlns="http://www.w3.org/2000/svg" width="877.578125" height="761"><g class="chordWrapper" transform="translate(438.7890625,330.5)"><g class="group"><path d="M5.043031028763607,-146.17605515724873A146.26302083333331,146.26302083333331 0 0,1 146.1257912136566,6.334382801420331L138.83019985174968,5.765580997987234A138.94986979166663,138.94986979166663 0 0,0 5.043031028763599,-138.85832403267742Z" style="fill: rgb(0, 134, 139); opacity: 0.8;"></path><path d="M7.265899226709792,-209.02987622522602A209.15611979166664,209.15611979166664 0 0,1 208.96223022166973,9.003820694121947L201.6666419763764,8.435019133676066A201.84296874999995,201.84296874999995 0 0,0 7.265899226709808,-201.71214822672619Z" style="fill: rgb(0, 134, 139); opacity: 0;"></path><path d="M7.627789463461873,-219.26189174206337A219.39453124999997,219.39453124999997 0 0,1 219.19141828072551,9.438352318664508L211.89583030359074,8.86955077912565A212.0813802083333,212.0813802083333 0 0,0 7.6277894634618635,-211.9441640125359Z" style="fill: rgb(0, 134, 139); opacity: 0.8;"></path><text transform="translate(158.36762279689995,-146.50106344958277)rotate(-42.77097238909325)translate(33)" class="textK" font-size="13px" font-family="arial" id="textTombusviridae">Tombusviridae</text></g><g class="group"><path d="M145.3418091036012,16.389929523473896A146.26302083333331,146.26302083333331 0 0,1 86.3065155438037,118.08495517202547L82.19475579053581,112.03164033278853A138.94986979166663,138.94986979166663 0 0,0 138.04621774169428,15.821127720040797Z" style="fill: rgb(39, 64, 139); opacity: 0.8;"></path><path d="M207.83268432462566,23.49165325656133A209.15611979166664,209.15611979166664 0 0,1 123.46223064540693,168.8293814783622L119.35047264864727,162.77606922504904A201.84296874999995,201.84296874999995 0 0,0 200.53709607933231,22.922851696115448Z" style="fill: rgb(39, 64, 139); opacity: 0;"></path><path d="M218.00561346522562,24.64777556003487A219.39453124999997,219.39453124999997 0 0,1 129.51085751947014,177.0900847788456L125.39909967384334,171.03677274802962A212.0813802083333,212.0813802083333 0 0,0 210.71002548809085,24.07897402049601Z" style="fill: rgb(39, 64, 139); opacity: 0.8;"></path><text transform="translate(186.57849900875885,108.31126095581399)rotate(30.135726068918032)translate(33)" class="textK" font-size="13px" font-family="arial" id="textFlaviviridae">Flaviviridae</text></g><g class="group"><path d="M77.96320419730071,123.75221232197057A146.26302083333331,146.26302083333331 0 0,1 46.36432677337738,138.71993535949898L44.28533516891423,131.7037410406327A138.94986979166663,138.94986979166663 0 0,0 73.85144444403282,117.69889748273364Z" style="fill: rgb(71, 60, 139); opacity: 0.8;"></path><path d="M111.44135290045722,176.9946533373869A209.15611979166664,209.15611979166664 0 0,1 66.3525770986229,198.3522572563199L64.27358638228702,191.33606593471117A201.84296874999995,201.84296874999995 0 0,0 107.32959490369755,170.94134108407374Z" style="fill: rgb(71, 60, 139); opacity: 0;"></path><path d="M116.89125989727579,185.6620416295015A219.39453124999997,219.39453124999997 0 0,1 69.60650460348043,208.05983480550222L67.52751396356047,201.04364374178252A212.0813802083333,212.0813802083333 0 0,0 112.779502051649,179.60872959868547Z" style="fill: rgb(71, 60, 139); opacity: 0.8;"></path><text transform="translate(92.35363498663214,194.97095077717546)rotate(64.65407029140658)translate(33)" class="textK" font-size="13px" font-family="arial" id="textLuteoviridae">Luteoviridae</text></g><g class="group"><path d="M36.69387426520318,141.58541893394798A146.26302083333331,146.26302083333331 0 0,1 15.764976133083996,145.41092390468947L15.227542203719665,138.11295476368264A138.94986979166663,138.94986979166663 0 0,0 34.614882660740044,134.5692246150817Z" style="fill: rgb(81, 81, 81); opacity: 0.8;"></path><path d="M52.41958065257419,202.48078923817508A209.15611979166664,209.15611979166664 0 0,1 22.5979956433753,207.93175091651588L22.060561943598124,200.6337848931384A201.84296874999995,201.84296874999995 0 0,0 50.34058993623828,195.4645979165664Z" style="fill: rgb(81, 81, 81); opacity: 0;"></path><path d="M54.979552017221145,212.39399521265398A219.39453124999997,219.39453124999997 0 0,1 23.710375416040947,218.10955604933412L23.172941736017798,210.81159029420263A212.0813802083333,212.0813802083333 0 0,0 52.900561377301194,205.3778041489343Z" style="fill: rgb(81, 81, 81); opacity: 0.8;"></path><text transform="translate(38.79113625574271,212.22184922902792)rotate(79.64149744669945)translate(33)" class="textK" font-size="13px" font-family="arial" id="textunclassified_ssRNA_ps_viruses">unclassified_ssRNA_ps_viruses</text></g><g class="group"><path d="M5.706152107293451,146.15167153139413A146.26302083333331,146.26302083333331 0 0,1 5.043031028763607,146.17605515724873L5.043031028763599,138.85832403267742A138.94986979166663,138.94986979166663 0 0,0 5.168718177929137,138.85370239038733Z" style="fill: rgb(34, 139, 34); opacity: 0.8;"></path><path d="M8.105441206620249,208.99900542622692A209.15611979166664,209.15611979166664 0 0,1 7.265899226709792,209.02987622522602L7.265899226709808,201.71214822672619A201.84296874999995,201.84296874999995 0 0,0 7.568007506843042,201.70103940284946Z" style="fill: rgb(34, 139, 34); opacity: 0;"></path><path d="M8.495995119524464,219.22996695099926A219.39453124999997,219.39453124999997 0 0,1 7.627789463461873,219.26189174206337L7.6277894634618635,211.9441640125359A212.0813802083333,212.0813802083333 0 0,0 7.958561439501337,211.93200119586777Z" style="fill: rgb(34, 139, 34); opacity: 0.8;"></path><text transform="translate(7.927542959197906,215.59225311877495)rotate(87.89412561330414)translate(33)" class="textK" font-size="13px" font-family="arial" id="textCarmotetraviridae">Carmotetraviridae</text></g><g class="group"><path d="M-5.043031028763589,146.17605515724873A146.26302083333331,146.26302083333331 0 0,1 -32.93068235609354,142.50768899555618L-31.03826528879983,135.4388880749661A138.94986979166663,138.94986979166663 0 0,0 -5.043031028763581,138.85832403267742Z" style="fill: rgb(56, 142, 60); opacity: 0.8;"></path><path d="M-7.265899226709767,209.02987622522602A209.15611979166664,209.15611979166664 0 0,1 -47.03787339827889,203.7982357933294L-45.14545713940937,196.72943789247A201.84296874999995,201.84296874999995 0 0,0 -7.265899226709783,201.71214822672619Z" style="fill: rgb(56, 142, 60); opacity: 0;"></path><path d="M-7.446439775758614,213.41413945542462A213.54401041666662,213.54401041666662 0 0,1 -47.997275875016804,208.08004684113985L-46.48334310254413,202.42500939684635A207.6934895833333,207.6934895833333 0 0,0 -7.446439775758647,207.55995796388132Z" style="fill: rgb(56, 142, 60); opacity: 0.8;"></path><text transform="translate(-28.1359857108857,213.89537594412062)rotate(-82.50628642235358)translate(-74.9072265625)" class="textK" font-size="13px" font-family="arial" id="textHuman">Human</text></g><g class="group"><path d="M-42.673642782444766,139.8993619533999A146.26302083333331,146.26302083333331 0 0,1 -104.48525937728363,-102.35087608884382L-99.4373920551172,-97.0529307975706A138.94986979166663,138.94986979166663 0 0,0 -40.78122571515104,132.8305610328098Z" style="fill: rgb(244, 67, 54); opacity: 0.8;"></path><path d="M-61.07533781678461,200.040209850099A209.15611979166664,209.15611979166664 0 0,1 -149.45198170462857,-146.32288819889175L-144.40411653886744,-141.02494517085498A201.84296874999995,201.84296874999995 0 0,0 -59.18292155791513,192.97141194923958Z" style="fill: rgb(244, 67, 54); opacity: 0;"></path><path d="M-62.38353835062389,204.22864277003276A213.54401041666662,213.54401041666662 0 0,1 -152.60701331896175,-149.37250038310148L-148.5687218121904,-145.13414661751438A207.6934895833333,207.6934895833333 0 0,0 -60.86960557815129,198.57360532573927Z" style="fill: rgb(244, 67, 54); opacity: 0.8;"></path><text transform="translate(-209.04049533722215,53.33794944848055)rotate(-14.31394725642403)translate(-62.630859375)" class="textK" font-size="13px" font-family="arial" id="textPlant">Plant</text></g><g class="group"><path d="M-97.18307731080381,-109.30837455426013A146.26302083333331,146.26302083333331 0 0,1 -43.090664932906016,-139.7714772724826L-41.17717549884361,-132.70835140660344A138.94986979166663,138.94986979166663 0 0,0 -92.13520998863741,-104.0104292629869Z" style="fill: rgb(2, 136, 209); opacity: 0.8;"></path><path d="M-138.93114240629535,-156.34711419142883A209.15611979166664,209.15611979166664 0 0,1 -61.67163190951637,-199.8571796656881L-59.75814329288016,-192.79405681711523A201.84296874999995,201.84296874999995 0 0,0 -133.88327724053426,-151.04917116339203Z" style="fill: rgb(2, 136, 209); opacity: 0;"></path><path d="M-141.8247558473083,-159.64580487342852A213.54401041666662,213.54401041666662 0 0,1 -62.99231749148718,-204.04169260689127L-61.4615268354137,-198.39119520372344A207.6934895833333,207.6934895833333 0 0,0 -137.7864643405369,-155.40745110784144Z" style="fill: rgb(2, 136, 209); opacity: 0.8;"></path><text transform="translate(-105.86329784912311,-187.9782639315187)rotate(60.613190898193636)translate(-100.20263671875)" class="textK" font-size="13px" font-family="arial" id="textVertebrates">Vertebrates</text></g><g class="group"><path d="M-33.355526460247766,-142.40884845349956A146.26302083333331,146.26302083333331 0 0,1 -32.709101308532745,-142.55871055421423L-31.319514402341046,-135.37412726486056A138.94986979166663,138.94986979166663 0 0,0 -31.4420370261855,-135.34572258762037Z" style="fill: rgb(255, 152, 0); opacity: 0.8;"></path><path d="M-47.64543720697403,-203.65705182895658A209.15611979166664,209.15611979166664 0 0,1 -46.827033043230855,-203.8467841852654L-45.437446730658706,-196.6622039651036A201.84296874999995,201.84296874999995 0 0,0 -45.73194859033787,-196.5939289803837Z" style="fill: rgb(255, 152, 0); opacity: 0;"></path><path d="M-48.61760475784486,-207.93598267842773A213.54401041666662,213.54401041666662 0 0,1 -47.836830105180404,-208.11699130614377L-46.72516122740444,-202.36932802076316A207.6934895833333,207.6934895833333 0 0,0 -47.0868141017715,-202.28548527525993Z" style="fill: rgb(255, 152, 0); opacity: 0.8;"></path><text transform="translate(-48.72278833575986,-210.16411548832164)rotate(76.94757785122414)translate(-65.51904296875)" class="textK" font-size="13px" font-family="arial" id="textFungi">Fungi</text></g><g class="group"><path d="M-22.806557517250795,-144.4739845006859A146.26302083333331,146.26302083333331 0 0,1 -5.043031028763754,-146.17605515724873L-5.043031028763676,-138.85832403267742A138.94986979166663,138.94986979166663 0 0,0 -21.41697061105923,-137.28940121133218Z" style="fill: rgb(135, 206, 235); opacity: 0.8;"></path><path d="M-32.55964407315428,-206.60627295446648A209.15611979166664,209.15611979166664 0 0,1 -7.265899226710049,-209.029876225226L-7.265899226710011,-201.71214822672619A201.84296874999995,201.84296874999995 0 0,0 -31.170057760582193,-199.42169273430468Z" style="fill: rgb(135, 206, 235); opacity: 0;"></path><path d="M-33.21492999232843,-210.94504689714367A213.54401041666662,213.54401041666662 0 0,1 -7.44643977575895,-213.4141394554246L-7.446439775758882,-207.55995796388132A207.6934895833333,207.6934895833333 0 0,0 -32.10326111455259,-205.19738361176303Z" style="fill: rgb(135, 206, 235); opacity: 0.8;"></path><text transform="translate(-20.577394899920243,-214.75436284586303)rotate(84.52672611895997)translate(-108.87353515625)" class="textK" font-size="13px" font-family="arial" id="textInvertebrates">Invertebrates</text></g><g class="g.subgroup"><path d="M208.96450947119288,8.950766881655426A209.15611979166664,209.15611979166664 0 0,1 208.96450947119288,8.950766881655426L201.65805809108124,8.637803004674465A201.84296874999995,201.84296874999995 0 0,0 201.65805809108124,8.637803004674465Z" style="fill: rgb(56, 142, 60); opacity: 0.8;"></path><path d="M135.8999956700765,5.8211281118458365A136.02460937499998,136.02460937499998 0 0,1 135.8999956700765,5.8211281118458365L132.97741511803184,5.695942561053452A133.0993489583333,133.0993489583333 0 0,0 132.97741511803184,5.695942561053452Z" style="fill: rgb(56, 142, 60); opacity: 0.8;"></path></g><g class="g.subgroup"><path d="M7.31896968947691,-209.0280247454645A209.15611979166664,209.15611979166664 0 0,1 208.96450947119288,8.950766881655426L201.65805809108124,8.637803004674465A201.84296874999995,201.84296874999995 0 0,0 7.063061658376319,-201.71935255156714Z" style="fill: rgb(244, 67, 54); opacity: 0.8;"></path><path d="M4.759889378470998,-135.9413028064909A136.02460937499998,136.02460937499998 0 0,1 135.8999956700765,5.8211281118458365L132.97741511803184,5.695942561053452A133.0993489583333,133.0993489583333 0 0,0 4.657526166030761,-133.01783392893196Z" style="fill: rgb(244, 67, 54); opacity: 0.8;"></path></g><g class="g.subgroup"><path d="M208.96450947119288,8.950766881655426A209.15611979166664,209.15611979166664 0 0,1 208.96450947119288,8.950766881655426L201.65805809108124,8.637803004674465A201.84296874999995,201.84296874999995 0 0,0 201.65805809108124,8.637803004674465Z" style="fill: rgb(2, 136, 209); opacity: 0.8;"></path><path d="M135.8999956700765,5.8211281118458365A136.02460937499998,136.02460937499998 0 0,1 135.8999956700765,5.8211281118458365L132.97741511803184,5.695942561053452A133.0993489583333,133.0993489583333 0 0,0 132.97741511803184,5.695942561053452Z" style="fill: rgb(2, 136, 209); opacity: 0.8;"></path></g><g class="g.subgroup"><path d="M208.96450947119288,8.950766881655426A209.15611979166664,209.15611979166664 0 0,1 208.96450947119288,8.950766881655426L201.65805809108124,8.637803004674465A201.84296874999995,201.84296874999995 0 0,0 201.65805809108124,8.637803004674465Z" style="fill: rgb(255, 152, 0); opacity: 0.8;"></path><path d="M135.8999956700765,5.8211281118458365A136.02460937499998,136.02460937499998 0 0,1 135.8999956700765,5.8211281118458365L132.97741511803184,5.695942561053452A133.0993489583333,133.0993489583333 0 0,0 132.97741511803184,5.695942561053452Z" style="fill: rgb(255, 152, 0); opacity: 0.8;"></path></g><g class="g.subgroup"><path d="M208.96450947119288,8.950766881655426A209.15611979166664,209.15611979166664 0 0,1 208.96450947119288,8.950766881655426L201.65805809108124,8.637803004674465A201.84296874999995,201.84296874999995 0 0,0 201.65805809108124,8.637803004674465Z" style="fill: rgb(135, 206, 235); opacity: 0.8;"></path><path d="M135.8999956700765,5.8211281118458365A136.02460937499998,136.02460937499998 0 0,1 135.8999956700765,5.8211281118458365L132.97741511803184,5.695942561053452A133.0993489583333,133.0993489583333 0 0,0 132.97741511803184,5.695942561053452Z" style="fill: rgb(135, 206, 235); opacity: 0.8;"></path></g><g class="g.subgroup"><path d="M180.8862736152713,105.00684960461967A209.15611979166664,209.15611979166664 0 0,1 155.50194329207864,139.8764743575315L150.06481240774022,134.98568854083456A201.84296874999995,201.84296874999995 0 0,0 174.56157873361843,101.33528143662596Z" style="fill: rgb(56, 142, 60); opacity: 0.8;"></path><path d="M117.63932479874288,68.29116792468272A136.02460937499998,136.02460937499998 0 0,1 101.13063444869451,90.96861619056243L98.95578209495913,89.01230186388366A133.0993489583333,133.0993489583333 0 0,0 115.10944684608172,66.82254065748523Z" style="fill: rgb(56, 142, 60); opacity: 0.8;"></path></g><g class="g.subgroup"><path d="M155.50194329207864,139.8764743575315A209.15611979166664,209.15611979166664 0 0,1 131.12120668772783,162.9524826538711L126.53654911123382,157.25484340023925A201.84296874999995,201.84296874999995 0 0,0 150.06481240774022,134.98568854083456Z" style="fill: rgb(244, 67, 54); opacity: 0.8;"></path><path d="M101.13063444869451,90.96861619056243A136.02460937499998,136.02460937499998 0 0,1 85.27463092278802,105.97609011755254L83.44076789219042,103.6970344160998A133.0993489583333,133.0993489583333 0 0,0 98.95578209495913,89.01230186388366Z" style="fill: rgb(244, 67, 54); opacity: 0.8;"></path></g><g class="g.subgroup"><path d="M207.82671331886692,23.54441924073533A209.15611979166664,209.15611979166664 0 0,1 180.8862736152713,105.00684960461967L174.56157873361843,101.33528143662596A201.84296874999995,201.84296874999995 0 0,0 200.5600450210044,22.721187798751576Z" style="fill: rgb(2, 136, 209); opacity: 0.8;"></path><path d="M135.16003034024212,15.312104820897801A136.02460937499998,136.02460937499998 0 0,1 117.63932479874288,68.29116792468272L115.10944684608172,66.82254065748523A133.0993489583333,133.0993489583333 0 0,0 132.25336302109713,14.9828122441043Z" style="fill: rgb(2, 136, 209); opacity: 0.8;"></path></g><g class="g.subgroup"><path d="M123.50509083997913,168.79803015116767A209.15611979166664,209.15611979166664 0 0,1 123.50509083997913,168.79803015116767L119.18673102039944,162.89600112490305A201.84296874999995,201.84296874999995 0 0,0 119.18673102039944,162.89600112490305Z" style="fill: rgb(255, 152, 0); opacity: 0.8;"></path><path d="M80.32149264418224,109.77773988852162A136.02460937499998,136.02460937499998 0 0,1 80.32149264418224,109.77773988852162L78.59414871635036,107.41692827801577A133.0993489583333,133.0993489583333 0 0,0 78.59414871635036,107.41692827801577Z" style="fill: rgb(255, 152, 0); opacity: 0.8;"></path></g><g class="g.subgroup"><path d="M131.12120668772783,162.9524826538711A209.15611979166664,209.15611979166664 0 0,1 123.50509083997913,168.79803015116767L119.18673102039944,162.89600112490305A201.84296874999995,201.84296874999995 0 0,0 126.53654911123382,157.25484340023925Z" style="fill: rgb(135, 206, 235); opacity: 0.8;"></path><path d="M85.27463092278802,105.97609011755254A136.02460937499998,136.02460937499998 0 0,1 80.32149264418224,109.77773988852162L78.59414871635036,107.41692827801577A133.0993489583333,133.0993489583333 0 0,0 83.44076789219042,103.6970344160998Z" style="fill: rgb(135, 206, 235); opacity: 0.8;"></path></g><g class="g.subgroup"><path d="M66.40293471114151,198.335404575315A209.15611979166664,209.15611979166664 0 0,1 66.40293471114151,198.335404575315L64.0811537771855,191.40060021953474A201.84296874999995,201.84296874999995 0 0,0 64.0811537771855,191.40060021953474Z" style="fill: rgb(56, 142, 60); opacity: 0.8;"></path><path d="M43.18512537158154,128.98736101751257A136.02460937499998,136.02460937499998 0 0,1 43.18512537158154,128.98736101751257L42.25641299799914,126.21343927520046A133.0993489583333,133.0993489583333 0 0,0 42.25641299799914,126.21343927520046Z" style="fill: rgb(56, 142, 60); opacity: 0.8;"></path></g><g class="g.subgroup"><path d="M111.39641205005393,177.02294153210934A209.15611979166664,209.15611979166664 0 0,1 66.40293471114151,198.335404575315L64.0811537771855,191.40060021953474A201.84296874999995,201.84296874999995 0 0,0 107.50143260774433,170.83332819182579Z" style="fill: rgb(244, 67, 54); opacity: 0.8;"></path><path d="M72.44661762695814,115.12680812927391A136.02460937499998,136.02460937499998 0 0,1 43.18512537158154,128.98736101751257L42.25641299799914,126.21343927520046A133.0993489583333,133.0993489583333 0 0,0 70.88862585003432,112.65096279316049Z" style="fill: rgb(244, 67, 54); opacity: 0.8;"></path></g><g class="g.subgroup"><path d="M66.40293471114151,198.335404575315A209.15611979166664,209.15611979166664 0 0,1 66.40293471114151,198.335404575315L64.0811537771855,191.40060021953474A201.84296874999995,201.84296874999995 0 0,0 64.0811537771855,191.40060021953474Z" style="fill: rgb(2, 136, 209); opacity: 0.8;"></path><path d="M43.18512537158154,128.98736101751257A136.02460937499998,136.02460937499998 0 0,1 43.18512537158154,128.98736101751257L42.25641299799914,126.21343927520046A133.0993489583333,133.0993489583333 0 0,0 42.25641299799914,126.21343927520046Z" style="fill: rgb(2, 136, 209); opacity: 0.8;"></path></g><g class="g.subgroup"><path d="M66.40293471114151,198.335404575315A209.15611979166664,209.15611979166664 0 0,1 66.40293471114151,198.335404575315L64.0811537771855,191.40060021953474A201.84296874999995,201.84296874999995 0 0,0 64.0811537771855,191.40060021953474Z" style="fill: rgb(255, 152, 0); opacity: 0.8;"></path><path d="M43.18512537158154,128.98736101751257A136.02460937499998,136.02460937499998 0 0,1 43.18512537158154,128.98736101751257L42.25641299799914,126.21343927520046A133.0993489583333,133.0993489583333 0 0,0 42.25641299799914,126.21343927520046Z" style="fill: rgb(255, 152, 0); opacity: 0.8;"></path></g><g class="g.subgroup"><path d="M66.40293471114151,198.335404575315A209.15611979166664,209.15611979166664 0 0,1 66.40293471114151,198.335404575315L64.0811537771855,191.40060021953474A201.84296874999995,201.84296874999995 0 0,0 64.0811537771855,191.40060021953474Z" style="fill: rgb(135, 206, 235); opacity: 0.8;"></path><path d="M43.18512537158154,128.98736101751257A136.02460937499998,136.02460937499998 0 0,1 43.18512537158154,128.98736101751257L42.25641299799914,126.21343927520046A133.0993489583333,133.0993489583333 0 0,0 42.25641299799914,126.21343927520046Z" style="fill: rgb(135, 206, 235); opacity: 0.8;"></path></g><g class="g.subgroup"><path d="M22.65078680841741,207.92600679873027A209.15611979166664,209.15611979166664 0 0,1 22.65078680841741,207.92600679873027L21.85880125567554,200.65586670087254A201.84296874999995,201.84296874999995 0 0,0 21.85880125567554,200.65586670087254Z" style="fill: rgb(56, 142, 60); opacity: 0.8;"></path><path d="M14.730931280998735,135.22460582015324A136.02460937499998,136.02460937499998 0 0,1 14.730931280998735,135.22460582015324L14.414137059901988,132.31654978101017A133.0993489583333,133.0993489583333 0 0,0 14.414137059901988,132.31654978101017Z" style="fill: rgb(56, 142, 60); opacity: 0.8;"></path></g><g class="g.subgroup"><path d="M39.730154955501185,205.34799057579764A209.15611979166664,209.15611979166664 0 0,1 31.217094928096316,206.81338310311602L30.12558811242861,199.58214593167838A201.84296874999995,201.84296874999995 0 0,0 38.340988698315826,198.16799090531518Z" style="fill: rgb(244, 67, 54); opacity: 0.8;"></path><path d="M25.838492383647623,133.54799387097327A136.02460937499998,136.02460937499998 0 0,1 20.302026771419282,134.50101138873978L19.8654240451522,131.60851652016473A133.0993489583333,133.0993489583333 0 0,0 25.28282588077348,130.6759940027803Z" style="fill: rgb(244, 67, 54); opacity: 0.8;"></path></g><g class="g.subgroup"><path d="M31.217094928096316,206.81338310311602A209.15611979166664,209.15611979166664 0 0,1 26.939685476389066,207.41392381597538L25.997738431760077,200.1616887175147A201.84296874999995,201.84296874999995 0 0,0 30.12558811242861,199.58214593167838Z" style="fill: rgb(2, 136, 209); opacity: 0.8;"></path><path d="M20.302026771419282,134.50101138873978A136.02460937499998,136.02460937499998 0 0,1 17.520215030099184,134.89157283136862L17.143436212247586,131.99067879198432A133.0993489583333,133.0993489583333 0 0,0 19.8654240451522,131.60851652016473Z" style="fill: rgb(2, 136, 209); opacity: 0.8;"></path></g><g class="g.subgroup"><path d="M26.939685476389066,207.41392381597538A209.15611979166664,209.15611979166664 0 0,1 22.65078680841741,207.92600679873027L21.85880125567554,200.65586670087254A201.84296874999995,201.84296874999995 0 0,0 25.997738431760077,200.1616887175147Z" style="fill: rgb(255, 152, 0); opacity: 0.8;"></path><path d="M17.520215030099184,134.89157283136862A136.02460937499998,136.02460937499998 0 0,1 14.730931280998735,135.22460582015324L14.414137059901988,132.31654978101017A133.0993489583333,133.0993489583333 0 0,0 17.143436212247586,131.99067879198432Z" style="fill: rgb(255, 152, 0); opacity: 0.8;"></path></g><g class="g.subgroup"><path d="M52.36817101701333,202.4940915450099A209.15611979166664,209.15611979166664 0 0,1 39.730154955501185,205.34799057579764L38.340988698315826,198.16799090531518A201.84296874999995,201.84296874999995 0 0,0 50.537116086348526,195.41387855392563Z" style="fill: rgb(135, 206, 235); opacity: 0.8;"></path><path d="M34.05762171036532,131.69196163416728A136.02460937499998,136.02460937499998 0 0,1 25.838492383647623,133.54799387097327L25.28282588077348,130.6759940027803A133.0993489583333,133.0993489583333 0 0,0 33.32519973809939,128.85987643773356Z" style="fill: rgb(135, 206, 235); opacity: 0.8;"></path></g><g class="g.subgroup"><path d="M7.318969689476957,209.0280247454645A209.15611979166664,209.15611979166664 0 0,1 7.318969689476957,209.0280247454645L7.0630616583763635,201.71935255156714A201.84296874999995,201.84296874999995 0 0,0 7.0630616583763635,201.71935255156714Z" style="fill: rgb(56, 142, 60); opacity: 0.8;"></path><path d="M4.759889378471028,135.9413028064909A136.02460937499998,136.02460937499998 0 0,1 4.759889378471028,135.9413028064909L4.657526166030791,133.01783392893196A133.0993489583333,133.0993489583333 0 0,0 4.657526166030791,133.01783392893196Z" style="fill: rgb(56, 142, 60); opacity: 0.8;"></path></g><g class="g.subgroup"><path d="M7.318969689476957,209.0280247454645A209.15611979166664,209.15611979166664 0 0,1 7.318969689476957,209.0280247454645L7.0630616583763635,201.71935255156714A201.84296874999995,201.84296874999995 0 0,0 7.0630616583763635,201.71935255156714Z" style="fill: rgb(244, 67, 54); opacity: 0.8;"></path><path d="M4.759889378471028,135.9413028064909A136.02460937499998,136.02460937499998 0 0,1 4.759889378471028,135.9413028064909L4.657526166030791,133.01783392893196A133.0993489583333,133.0993489583333 0 0,0 4.657526166030791,133.01783392893196Z" style="fill: rgb(244, 67, 54); opacity: 0.8;"></path></g><g class="g.subgroup"><path d="M7.318969689476957,209.0280247454645A209.15611979166664,209.15611979166664 0 0,1 7.318969689476957,209.0280247454645L7.0630616583763635,201.71935255156714A201.84296874999995,201.84296874999995 0 0,0 7.0630616583763635,201.71935255156714Z" style="fill: rgb(2, 136, 209); opacity: 0.8;"></path><path d="M4.759889378471028,135.9413028064909A136.02460937499998,136.02460937499998 0 0,1 4.759889378471028,135.9413028064909L4.657526166030791,133.01783392893196A133.0993489583333,133.0993489583333 0 0,0 4.657526166030791,133.01783392893196Z" style="fill: rgb(2, 136, 209); opacity: 0.8;"></path></g><g class="g.subgroup"><path d="M7.318969689476957,209.0280247454645A209.15611979166664,209.15611979166664 0 0,1 7.318969689476957,209.0280247454645L7.0630616583763635,201.71935255156714A201.84296874999995,201.84296874999995 0 0,0 7.0630616583763635,201.71935255156714Z" style="fill: rgb(255, 152, 0); opacity: 0.8;"></path><path d="M4.759889378471028,135.9413028064909A136.02460937499998,136.02460937499998 0 0,1 4.759889378471028,135.9413028064909L4.657526166030791,133.01783392893196A133.0993489583333,133.0993489583333 0 0,0 4.657526166030791,133.01783392893196Z" style="fill: rgb(255, 152, 0); opacity: 0.8;"></path></g><g class="g.subgroup"><path d="M8.052378086234036,209.00105658455973A209.15611979166664,209.15611979166664 0 0,1 7.318969689476957,209.0280247454645L7.0630616583763635,201.71935255156714A201.84296874999995,201.84296874999995 0 0,0 7.77082640489718,201.69332733335133Z" style="fill: rgb(135, 206, 235); opacity: 0.8;"></path><path d="M5.236861272865492,135.92376407247593A136.02460937499998,136.02460937499998 0 0,1 4.759889378471028,135.9413028064909L4.657526166030791,133.01783392893196A133.0993489583333,133.0993489583333 0 0,0 5.12424060033075,133.00067237199255Z" style="fill: rgb(135, 206, 235); opacity: 0.8;"></path></g><g class="g.subgroup"><path d="M-45.014683458156604,195.25869595804153A200.38033854166665,200.38033854166665 0 0,1 -45.014683458156604,195.25869595804153L-44.02896046272252,190.9829580903472A195.99244791666666,195.99244791666666 0 0,0 -44.02896046272252,190.9829580903472Z" style="fill: rgb(0, 134, 139); opacity: 0.8;"></path><path d="M-30.557412858456672,132.54787389852453A136.02460937499998,136.02460937499998 0 0,1 -30.557412858456672,132.54787389852453L-29.900264194833944,129.6973819867283A133.0993489583333,133.0993489583333 0 0,0 -29.900264194833944,129.6973819867283Z" style="fill: rgb(0, 134, 139); opacity: 0.8;"></path></g><g class="g.subgroup"><path d="M-7.01188005215622,200.2576181127877A200.38033854166665,200.38033854166665 0 0,1 -45.014683458156604,195.25869595804153L-44.02896046272252,190.9829580903472A195.99244791666666,195.99244791666666 0 0,0 -6.8583352334958665,195.87241479644928Z" style="fill: rgb(39, 64, 139); opacity: 0.8;"></path><path d="M-4.759889378471011,135.9413028064909A136.02460937499998,136.02460937499998 0 0,1 -30.557412858456672,132.54787389852453L-29.900264194833944,129.6973819867283A133.0993489583333,133.0993489583333 0 0,0 -4.657526166030774,133.01783392893196Z" style="fill: rgb(39, 64, 139); opacity: 0.8;"></path></g><g class="g.subgroup"><path d="M-45.014683458156604,195.25869595804153A200.38033854166665,200.38033854166665 0 0,1 -45.014683458156604,195.25869595804153L-44.02896046272252,190.9829580903472A195.99244791666666,195.99244791666666 0 0,0 -44.02896046272252,190.9829580903472Z" style="fill: rgb(71, 60, 139); opacity: 0.8;"></path><path d="M-30.557412858456672,132.54787389852453A136.02460937499998,136.02460937499998 0 0,1 -30.557412858456672,132.54787389852453L-29.900264194833944,129.6973819867283A133.0993489583333,133.0993489583333 0 0,0 -29.900264194833944,129.6973819867283Z" style="fill: rgb(71, 60, 139); opacity: 0.8;"></path></g><g class="g.subgroup"><path d="M-45.014683458156604,195.25869595804153A200.38033854166665,200.38033854166665 0 0,1 -45.014683458156604,195.25869595804153L-44.02896046272252,190.9829580903472A195.99244791666666,195.99244791666666 0 0,0 -44.02896046272252,190.9829580903472Z" style="fill: rgb(81, 81, 81); opacity: 0.8;"></path><path d="M-30.557412858456672,132.54787389852453A136.02460937499998,136.02460937499998 0 0,1 -30.557412858456672,132.54787389852453L-29.900264194833944,129.6973819867283A133.0993489583333,133.0993489583333 0 0,0 -29.900264194833944,129.6973819867283Z" style="fill: rgb(81, 81, 81); opacity: 0.8;"></path></g><g class="g.subgroup"><path d="M-45.014683458156604,195.25869595804153A200.38033854166665,200.38033854166665 0 0,1 -45.014683458156604,195.25869595804153L-44.02896046272252,190.9829580903472A195.99244791666666,195.99244791666666 0 0,0 -44.02896046272252,190.9829580903472Z" style="fill: rgb(34, 139, 34); opacity: 0.8;"></path><path d="M-30.557412858456672,132.54787389852453A136.02460937499998,136.02460937499998 0 0,1 -30.557412858456672,132.54787389852453L-29.900264194833944,129.6973819867283A133.0993489583333,133.0993489583333 0 0,0 -29.900264194833944,129.6973819867283Z" style="fill: rgb(34, 139, 34); opacity: 0.8;"></path></g><g class="g.subgroup"><path d="M-58.56139167248796,191.6320523280341A200.38033854166665,200.38033854166665 0 0,1 -190.89402887449398,-60.92413162398623L-186.71386765826418,-59.59002655192814A195.99244791666666,195.99244791666666 0 0,0 -57.27902543148458,187.43573001428152Z" style="fill: rgb(0, 134, 139); opacity: 0.8;"></path><path d="M-39.753353471104965,130.0859917263297A136.02460937499998,136.02460937499998 0 0,1 -129.58499770312363,-41.357257233800865L-126.79822355897043,-40.4678538524288A133.0993489583333,133.0993489583333 0 0,0 -38.89844264376937,127.28844351716131Z" style="fill: rgb(0, 134, 139); opacity: 0.8;"></path></g><g class="g.subgroup"><path d="M-169.23563833810186,-107.2920257538654A200.38033854166665,200.38033854166665 0 0,1 -149.5849702560262,-133.3289793989915L-146.30938696574825,-130.40936671142234A195.99244791666666,195.99244791666666 0 0,0 -165.52974844748653,-104.94256533589756Z" style="fill: rgb(39, 64, 139); opacity: 0.8;"></path><path d="M-114.88258660907645,-72.83327295700352A136.02460937499998,136.02460937499998 0 0,1 -101.54308199861632,-90.50799331464385L-99.35935980509768,-88.56158485626442A133.0993489583333,133.0993489583333 0 0,0 -112.4119933486662,-71.26696601169161Z" style="fill: rgb(39, 64, 139); opacity: 0.8;"></path></g><g class="g.subgroup"><path d="M-190.89402887449398,-60.92413162398623A200.38033854166665,200.38033854166665 0 0,1 -169.23563833810186,-107.2920257538654L-165.52974844748653,-104.94256533589756A195.99244791666666,195.99244791666666 0 0,0 -186.71386765826418,-59.59002655192814Z" style="fill: rgb(71, 60, 139); opacity: 0.8;"></path><path d="M-129.58499770312363,-41.357257233800865A136.02460937499998,136.02460937499998 0 0,1 -114.88258660907645,-72.83327295700352L-112.4119933486662,-71.26696601169161A133.0993489583333,133.0993489583333 0 0,0 -126.79822355897043,-40.4678538524288Z" style="fill: rgb(71, 60, 139); opacity: 0.8;"></path></g><g class="g.subgroup"><path d="M-149.5849702560262,-133.3289793989915A200.38033854166665,200.38033854166665 0 0,1 -143.21685581924305,-140.1471094362031L-140.08072029035452,-137.07819463103075A195.99244791666666,195.99244791666666 0 0,0 -146.30938696574825,-130.40936671142234Z" style="fill: rgb(81, 81, 81); opacity: 0.8;"></path><path d="M-101.54308199861632,-90.50799331464385A136.02460937499998,136.02460937499998 0 0,1 -97.22020139554455,-95.13635896034224L-95.12944437628552,-93.090415756894A133.0993489583333,133.0993489583333 0 0,0 -99.35935980509768,-88.56158485626442Z" style="fill: rgb(81, 81, 81); opacity: 0.8;"></path></g><g class="g.subgroup"><path d="M-143.21685581924305,-140.1471094362031A200.38033854166665,200.38033854166665 0 0,1 -143.21685581924305,-140.1471094362031L-140.08072029035452,-137.07819463103075A195.99244791666666,195.99244791666666 0 0,0 -140.08072029035452,-137.07819463103075Z" style="fill: rgb(34, 139, 34); opacity: 0.8;"></path><path d="M-97.22020139554455,-95.13635896034224A136.02460937499998,136.02460937499998 0 0,1 -97.22020139554455,-95.13635896034224L-95.12944437628552,-93.090415756894A133.0993489583333,133.0993489583333 0 0,0 -95.12944437628552,-93.090415756894Z" style="fill: rgb(34, 139, 34); opacity: 0.8;"></path></g><g class="g.subgroup"><path d="M-59.132621894397026,-191.45655669620513A200.38033854166665,200.38033854166665 0 0,1 -59.132621894397026,-191.45655669620513L-57.83774696240294,-187.26407735249265A195.99244791666666,195.99244791666666 0 0,0 -57.83774696240294,-187.26407735249265Z" style="fill: rgb(0, 134, 139); opacity: 0.8;"></path><path d="M-40.141122891816956,-129.96685965508817A136.02460937499998,136.02460937499998 0 0,1 -40.141122891816956,-129.96685965508817L-39.27787293715423,-127.17187342594647A133.0993489583333,133.0993489583333 0 0,0 -39.27787293715423,-127.17187342594647Z" style="fill: rgb(0, 134, 139); opacity: 0.8;"></path></g><g class="g.subgroup"><path d="M-133.06382989552273,-149.82088388341703A200.38033854166665,200.38033854166665 0 0,1 -63.41674802536274,-190.08049911540266L-62.0280601123986,-185.91815241944494A195.99244791666666,195.99244791666666 0 0,0 -130.1500234014602,-146.54013460129843Z" style="fill: rgb(39, 64, 139); opacity: 0.8;"></path><path d="M-90.32800131593879,-101.70322774567725A136.02460937499998,136.02460937499998 0 0,1 -43.04932530188857,-129.03274757468938L-42.12353335991247,-126.25784977738424A133.0993489583333,133.0993489583333 0 0,0 -88.38546365323042,-99.51606155759816Z" style="fill: rgb(39, 64, 139); opacity: 0.8;"></path></g><g class="g.subgroup"><path d="M-59.132621894397026,-191.45655669620513A200.38033854166665,200.38033854166665 0 0,1 -59.132621894397026,-191.45655669620513L-57.83774696240294,-187.26407735249265A195.99244791666666,195.99244791666666 0 0,0 -57.83774696240294,-187.26407735249265Z" style="fill: rgb(71, 60, 139); opacity: 0.8;"></path><path d="M-40.141122891816956,-129.96685965508817A136.02460937499998,136.02460937499998 0 0,1 -40.141122891816956,-129.96685965508817L-39.27787293715423,-127.17187342594647A133.0993489583333,133.0993489583333 0 0,0 -39.27787293715423,-127.17187342594647Z" style="fill: rgb(71, 60, 139); opacity: 0.8;"></path></g><g class="g.subgroup"><path d="M-63.41674802536274,-190.08049911540266A200.38033854166665,200.38033854166665 0 0,1 -59.132621894397026,-191.45655669620513L-57.83774696240294,-187.26407735249265A195.99244791666666,195.99244791666666 0 0,0 -62.0280601123986,-185.91815241944494Z" style="fill: rgb(81, 81, 81); opacity: 0.8;"></path><path d="M-43.04932530188857,-129.03274757468938A136.02460937499998,136.02460937499998 0 0,1 -40.141122891816956,-129.96685965508817L-39.27787293715423,-127.17187342594647A133.0993489583333,133.0993489583333 0 0,0 -42.12353335991247,-126.25784977738424Z" style="fill: rgb(81, 81, 81); opacity: 0.8;"></path></g><g class="g.subgroup"><path d="M-59.132621894397026,-191.45655669620513A200.38033854166665,200.38033854166665 0 0,1 -59.132621894397026,-191.45655669620513L-57.83774696240294,-187.26407735249265A195.99244791666666,195.99244791666666 0 0,0 -57.83774696240294,-187.26407735249265Z" style="fill: rgb(34, 139, 34); opacity: 0.8;"></path><path d="M-40.141122891816956,-129.96685965508817A136.02460937499998,136.02460937499998 0 0,1 -40.141122891816956,-129.96685965508817L-39.27787293715423,-127.17187342594647A133.0993489583333,133.0993489583333 0 0,0 -39.27787293715423,-127.17187342594647Z" style="fill: rgb(34, 139, 34); opacity: 0.8;"></path></g><g class="g.subgroup"><path d="M-44.91184421094484,-195.28237586542406A200.38033854166665,200.38033854166665 0 0,1 -44.91184421094484,-195.28237586542406L-43.928373169829264,-191.00611945961188A195.99244791666666,195.99244791666666 0 0,0 -43.928373169829264,-191.00611945961188Z" style="fill: rgb(0, 134, 139); opacity: 0.8;"></path><path d="M-30.487602274582994,-132.56394858017836A136.02460937499998,136.02460937499998 0 0,1 -30.487602274582994,-132.56394858017836L-29.83195491383927,-129.71311097630357A133.0993489583333,133.0993489583333 0 0,0 -29.83195491383927,-129.71311097630357Z" style="fill: rgb(0, 134, 139); opacity: 0.8;"></path></g><g class="g.subgroup"><path d="M-44.91184421094484,-195.28237586542406A200.38033854166665,200.38033854166665 0 0,1 -44.91184421094484,-195.28237586542406L-43.928373169829264,-191.00611945961188A195.99244791666666,195.99244791666666 0 0,0 -43.928373169829264,-191.00611945961188Z" style="fill: rgb(39, 64, 139); opacity: 0.8;"></path><path d="M-30.487602274582994,-132.56394858017836A136.02460937499998,136.02460937499998 0 0,1 -30.487602274582994,-132.56394858017836L-29.83195491383927,-129.71311097630357A133.0993489583333,133.0993489583333 0 0,0 -29.83195491383927,-129.71311097630357Z" style="fill: rgb(39, 64, 139); opacity: 0.8;"></path></g><g class="g.subgroup"><path d="M-44.91184421094484,-195.28237586542406A200.38033854166665,200.38033854166665 0 0,1 -44.91184421094484,-195.28237586542406L-43.928373169829264,-191.00611945961188A195.99244791666666,195.99244791666666 0 0,0 -43.928373169829264,-191.00611945961188Z" style="fill: rgb(71, 60, 139); opacity: 0.8;"></path><path d="M-30.487602274582994,-132.56394858017836A136.02460937499998,136.02460937499998 0 0,1 -30.487602274582994,-132.56394858017836L-29.83195491383927,-129.71311097630357A133.0993489583333,133.0993489583333 0 0,0 -29.83195491383927,-129.71311097630357Z" style="fill: rgb(71, 60, 139); opacity: 0.8;"></path></g><g class="g.subgroup"><path d="M-45.59678940158232,-195.12358358317604A200.38033854166665,200.38033854166665 0 0,1 -44.91184421094484,-195.28237586542406L-43.928373169829264,-191.00611945961188A195.99244791666666,195.99244791666666 0 0,0 -44.59831956067176,-190.85080438062477Z" style="fill: rgb(81, 81, 81); opacity: 0.8;"></path><path d="M-30.952565068227415,-132.4561552790903A136.02460937499998,136.02460937499998 0 0,1 -30.487602274582994,-132.56394858017836L-29.83195491383927,-129.71311097630357A133.0993489583333,133.0993489583333 0 0,0 -30.28691850762037,-129.60763581072277Z" style="fill: rgb(81, 81, 81); opacity: 0.8;"></path></g><g class="g.subgroup"><path d="M-44.91184421094484,-195.28237586542406A200.38033854166665,200.38033854166665 0 0,1 -44.91184421094484,-195.28237586542406L-43.928373169829264,-191.00611945961188A195.99244791666666,195.99244791666666 0 0,0 -43.928373169829264,-191.00611945961188Z" style="fill: rgb(34, 139, 34); opacity: 0.8;"></path><path d="M-30.487602274582994,-132.56394858017836A136.02460937499998,136.02460937499998 0 0,1 -30.487602274582994,-132.56394858017836L-29.83195491383927,-129.71311097630357A133.0993489583333,133.0993489583333 0 0,0 -29.83195491383927,-129.71311097630357Z" style="fill: rgb(34, 139, 34); opacity: 0.8;"></path></g><g class="g.subgroup"><path d="M-7.011880052156448,-200.25761811278767A200.38033854166665,200.38033854166665 0 0,1 -7.011880052156448,-200.25761811278767L-6.858335233496088,-195.87241479644928A195.99244791666666,195.99244791666666 0 0,0 -6.858335233496088,-195.87241479644928Z" style="fill: rgb(0, 134, 139); opacity: 0.8;"></path><path d="M-4.759889378471165,-135.94130280649088A136.02460937499998,136.02460937499998 0 0,1 -4.759889378471165,-135.94130280649088L-4.657526166030925,-133.01783392893194A133.0993489583333,133.0993489583333 0 0,0 -4.657526166030925,-133.01783392893194Z" style="fill: rgb(0, 134, 139); opacity: 0.8;"></path></g><g class="g.subgroup"><path d="M-19.11256339856999,-199.4667641348016A200.38033854166665,200.38033854166665 0 0,1 -11.050486493233263,-200.0754028418681L-10.808505037177062,-195.69418964095132A195.99244791666666,195.99244791666666 0 0,0 -18.694040112469917,-195.09887878878408Z" style="fill: rgb(39, 64, 139); opacity: 0.8;"></path><path d="M-12.974221869102255,-135.40444572654417A136.02460937499998,136.02460937499998 0 0,1 -7.501425137742289,-135.81760922842142L-7.340104167038153,-132.8968004278102A133.0993489583333,133.0993489583333 0 0,0 -12.69520634503554,-132.49252216253245Z" style="fill: rgb(39, 64, 139); opacity: 0.8;"></path></g><g class="g.subgroup"><path d="M-7.011880052156448,-200.25761811278767A200.38033854166665,200.38033854166665 0 0,1 -7.011880052156448,-200.25761811278767L-6.858335233496088,-195.87241479644928A195.99244791666666,195.99244791666666 0 0,0 -6.858335233496088,-195.87241479644928Z" style="fill: rgb(71, 60, 139); opacity: 0.8;"></path><path d="M-4.759889378471165,-135.94130280649088A136.02460937499998,136.02460937499998 0 0,1 -4.759889378471165,-135.94130280649088L-4.657526166030925,-133.01783392893194A133.0993489583333,133.0993489583333 0 0,0 -4.657526166030925,-133.01783392893194Z" style="fill: rgb(71, 60, 139); opacity: 0.8;"></path></g><g class="g.subgroup"><path d="M-31.143249712981387,-197.94539163968383A200.38033854166665,200.38033854166665 0 0,1 -19.11256339856999,-199.4667641348016L-18.694040112469917,-195.09887878878408A195.99244791666666,195.99244791666666 0 0,0 -30.461280741164277,-193.61082101983678Z" style="fill: rgb(81, 81, 81); opacity: 0.8;"></path><path d="M-21.14103812633043,-134.37168921525983A136.02460937499998,136.02460937499998 0 0,1 -12.974221869102255,-135.40444572654417L-12.69520634503554,-132.49252216253245A133.0993489583333,133.0993489583333 0 0,0 -20.686392145119022,-131.4819754686951Z" style="fill: rgb(81, 81, 81); opacity: 0.8;"></path></g><g class="g.subgroup"><path d="M-11.050486493233263,-200.0754028418681A200.38033854166665,200.38033854166665 0 0,1 -7.011880052156448,-200.25761811278767L-6.858335233496088,-195.87241479644928A195.99244791666666,195.99244791666666 0 0,0 -10.808505037177062,-195.69418964095132Z" style="fill: rgb(34, 139, 34); opacity: 0.8;"></path><path d="M-7.501425137742289,-135.81760922842142A136.02460937499998,136.02460937499998 0 0,1 -4.759889378471165,-135.94130280649088L-4.657526166030925,-133.01783392893194A133.0993489583333,133.0993489583333 0 0,0 -7.340104167038153,-132.8968004278102Z" style="fill: rgb(34, 139, 34); opacity: 0.8;"></path></g><g class="g.chord"><path class="chordPath" id="TombusviridaeHuman" d="M-31.214561522079393,135.39836581032074A138.94986979166663,138.94986979166663 0 0,1 -31.214561522079393,135.39836581032074Q 0,0 138.82257622212114,5.946313662638219A138.94986979166663,138.94986979166663 0 0,1 138.82257622212114,5.946313662638219Q 0,0 -31.214561522079393,135.39836581032074Z" style="stroke: rgb(0, 134, 139); fill: rgb(0, 134, 139); opacity: 0.3;"></path></g><g class="g.chord"><path class="chordPath" id="FlaviviridaeHuman" d="M-4.862252590911247,138.86477168404983A138.94986979166663,138.94986979166663 0 0,1 -31.214561522079393,135.39836581032074Q 0,0 120.16920275140399,69.75979519188019A138.94986979166663,138.94986979166663 0 0,1 103.30548680242985,92.92493051724118Q 0,0 -4.862252590911247,138.86477168404983Z" style="stroke: rgb(39, 64, 139); fill: rgb(39, 64, 139); opacity: 0.3;"></path></g><g class="g.chord"><path class="chordPath" id="LuteoviridaeHuman" d="M-31.214561522079393,135.39836581032074A138.94986979166663,138.94986979166663 0 0,1 -31.214561522079393,135.39836581032074Q 0,0 44.113837745163934,131.76128275982464A138.94986979166663,138.94986979166663 0 0,1 44.113837745163934,131.76128275982464Q 0,0 -31.214561522079393,135.39836581032074Z" style="stroke: rgb(71, 60, 139); fill: rgb(71, 60, 139); opacity: 0.3;"></path></g><g class="g.chord"><path class="chordPath" id="unclassified_ssRNA_ps_virusesHuman" d="M-31.214561522079393,135.39836581032074A138.94986979166663,138.94986979166663 0 0,1 -31.214561522079393,135.39836581032074Q 0,0 15.04772550209548,138.13266185929632A138.94986979166663,138.94986979166663 0 0,1 15.04772550209548,138.13266185929632Q 0,0 -31.214561522079393,135.39836581032074Z" style="stroke: rgb(81, 81, 81); fill: rgb(81, 81, 81); opacity: 0.3;"></path></g><g class="g.chord"><path class="chordPath" id="CarmotetraviridaeHuman" d="M-31.214561522079393,135.39836581032074A138.94986979166663,138.94986979166663 0 0,1 -31.214561522079393,135.39836581032074Q 0,0 4.862252590911265,138.86477168404983A138.94986979166663,138.94986979166663 0 0,1 4.862252590911265,138.86477168404983Q 0,0 -31.214561522079393,135.39836581032074Z" style="stroke: rgb(34, 139, 34); fill: rgb(34, 139, 34); opacity: 0.3;"></path></g><g class="g.chord"><path class="chordPath" id="TombusviridaePlant" d="M-40.608264298440545,132.88353993549808A138.94986979166663,138.94986979166663 0 0,1 -132.37177184727682,-42.24666061517292Q 0,0 4.8622525909112335,-138.86477168404983A138.94986979166663,138.94986979166663 0 0,1 138.82257622212114,5.946313662638219Q 0,0 -40.608264298440545,132.88353993549808Z" style="stroke: rgb(0, 134, 139); fill: rgb(0, 134, 139); opacity: 0.3;"></path></g><g class="g.chord"><path class="chordPath" id="FlaviviridaePlant" d="M-117.35317986948668,-74.39957990231541A138.94986979166663,138.94986979166663 0 0,1 -103.72680419213494,-92.45440177302328Q 0,0 103.30548680242985,92.92493051724118A138.94986979166663,138.94986979166663 0 0,1 87.1084939533856,108.25514581900526Q 0,0 -117.35317986948668,-74.39957990231541Z" style="stroke: rgb(39, 64, 139); fill: rgb(39, 64, 139); opacity: 0.3;"></path></g><g class="g.chord"><path class="chordPath" id="LuteoviridaePlant" d="M-132.37177184727682,-42.24666061517292A138.94986979166663,138.94986979166663 0 0,1 -117.35317986948668,-74.39957990231541Q 0,0 74.00460940388197,117.6026534653873A138.94986979166663,138.94986979166663 0 0,1 44.113837745163934,131.76128275982464Q 0,0 -132.37177184727682,-42.24666061517292Z" style="stroke: rgb(71, 60, 139); fill: rgb(71, 60, 139); opacity: 0.3;"></path></g><g class="g.chord"><path class="chordPath" id="unclassified_ssRNA_ps_virusesPlant" d="M-103.72680419213494,-92.45440177302328A138.94986979166663,138.94986979166663 0 0,1 -99.31095841480355,-97.18230216379044Q 0,0 26.394158886521762,136.41999373916624A138.94986979166663,138.94986979166663 0 0,1 20.73862949768636,137.3935062573148Q 0,0 -103.72680419213494,-92.45440177302328Z" style="stroke: rgb(81, 81, 81); fill: rgb(81, 81, 81); opacity: 0.3;"></path></g><g class="g.chord"><path class="chordPath" id="CarmotetraviridaePlant" d="M-99.31095841480355,-97.18230216379044A138.94986979166663,138.94986979166663 0 0,1 -99.31095841480355,-97.18230216379044Q 0,0 4.862252590911265,138.86477168404983A138.94986979166663,138.94986979166663 0 0,1 4.862252590911265,138.86477168404983Q 0,0 -99.31095841480355,-97.18230216379044Z" style="stroke: rgb(34, 139, 34); fill: rgb(34, 139, 34); opacity: 0.3;"></path></g><g class="g.chord"><path class="chordPath" id="TombusviridaeVertebrates" d="M-41.00437284647968,-132.7618458842298A138.94986979166663,138.94986979166663 0 0,1 -41.00437284647968,-132.7618458842298Q 0,0 138.82257622212114,5.946313662638219A138.94986979166663,138.94986979166663 0 0,1 138.82257622212114,5.946313662638219Q 0,0 -41.00437284647968,-132.7618458842298Z" style="stroke: rgb(0, 134, 139); fill: rgb(0, 134, 139); opacity: 0.3;"></path></g><g class="g.chord"><path class="chordPath" id="FlaviviridaeVertebrates" d="M-92.27053897864714,-103.89039393375631A138.94986979166663,138.94986979166663 0 0,1 -43.975117243864666,-131.8076453719945Q 0,0 138.0666976593871,15.6413973976913A138.94986979166663,138.94986979166663 0 0,1 120.16920275140399,69.75979519188019Q 0,0 -92.27053897864714,-103.89039393375631Z" style="stroke: rgb(39, 64, 139); fill: rgb(39, 64, 139); opacity: 0.3;"></path></g><g class="g.chord"><path class="chordPath" id="LuteoviridaeVertebrates" d="M-41.00437284647968,-132.7618458842298A138.94986979166663,138.94986979166663 0 0,1 -41.00437284647968,-132.7618458842298Q 0,0 44.113837745163934,131.76128275982464A138.94986979166663,138.94986979166663 0 0,1 44.113837745163934,131.76128275982464Q 0,0 -41.00437284647968,-132.7618458842298Z" style="stroke: rgb(71, 60, 139); fill: rgb(71, 60, 139); opacity: 0.3;"></path></g><g class="g.chord"><path class="chordPath" id="unclassified_ssRNA_ps_virusesVertebrates" d="M-43.975117243864666,-131.8076453719945A138.94986979166663,138.94986979166663 0 0,1 -41.00437284647968,-132.7618458842298Q 0,0 20.73862949768636,137.3935062573148A138.94986979166663,138.94986979166663 0 0,1 17.896993847950775,137.79246687075286Q 0,0 -43.975117243864666,-131.8076453719945Z" style="stroke: rgb(81, 81, 81); fill: rgb(81, 81, 81); opacity: 0.3;"></path></g><g class="g.chord"><path class="chordPath" id="CarmotetraviridaeVertebrates" d="M-41.00437284647968,-132.7618458842298A138.94986979166663,138.94986979166663 0 0,1 -41.00437284647968,-132.7618458842298Q 0,0 4.862252590911265,138.86477168404983A138.94986979166663,138.94986979166663 0 0,1 4.862252590911265,138.86477168404983Q 0,0 -41.00437284647968,-132.7618458842298Z" style="stroke: rgb(34, 139, 34); fill: rgb(34, 139, 34); opacity: 0.3;"></path></g><g class="g.chord"><path class="chordPath" id="TombusviridaeFungi" d="M-31.143249635326708,-135.41478618405316A138.94986979166663,138.94986979166663 0 0,1 -31.143249635326708,-135.41478618405316Q 0,0 138.82257622212114,5.946313662638219A138.94986979166663,138.94986979166663 0 0,1 138.82257622212114,5.946313662638219Q 0,0 -31.143249635326708,-135.41478618405316Z" style="stroke: rgb(0, 134, 139); fill: rgb(0, 134, 139); opacity: 0.3;"></path></g><g class="g.chord"><path class="chordPath" id="FlaviviridaeFungi" d="M-31.143249635326708,-135.41478618405316A138.94986979166663,138.94986979166663 0 0,1 -31.143249635326708,-135.41478618405316Q 0,0 82.0488365720141,112.13855149902744A138.94986979166663,138.94986979166663 0 0,1 82.0488365720141,112.13855149902744Q 0,0 -31.143249635326708,-135.41478618405316Z" style="stroke: rgb(39, 64, 139); fill: rgb(39, 64, 139); opacity: 0.3;"></path></g><g class="g.chord"><path class="chordPath" id="LuteoviridaeFungi" d="M-31.143249635326708,-135.41478618405316A138.94986979166663,138.94986979166663 0 0,1 -31.143249635326708,-135.41478618405316Q 0,0 44.113837745163934,131.76128275982464A138.94986979166663,138.94986979166663 0 0,1 44.113837745163934,131.76128275982464Q 0,0 -31.143249635326708,-135.41478618405316Z" style="stroke: rgb(71, 60, 139); fill: rgb(71, 60, 139); opacity: 0.3;"></path></g><g class="g.chord"><path class="chordPath" id="unclassified_ssRNA_ps_virusesFungi" d="M-31.61821162883445,-135.30467474745782A138.94986979166663,138.94986979166663 0 0,1 -31.143249635326708,-135.41478618405316Q 0,0 17.896993847950775,137.79246687075286A138.94986979166663,138.94986979166663 0 0,1 15.04772550209548,138.13266185929632Q 0,0 -31.61821162883445,-135.30467474745782Z" style="stroke: rgb(81, 81, 81); fill: rgb(81, 81, 81); opacity: 0.3;"></path></g><g class="g.chord"><path class="chordPath" id="CarmotetraviridaeFungi" d="M-31.143249635326708,-135.41478618405316A138.94986979166663,138.94986979166663 0 0,1 -31.143249635326708,-135.41478618405316Q 0,0 4.862252590911265,138.86477168404983A138.94986979166663,138.94986979166663 0 0,1 4.862252590911265,138.86477168404983Q 0,0 -31.143249635326708,-135.41478618405316Z" style="stroke: rgb(34, 139, 34); fill: rgb(34, 139, 34); opacity: 0.3;"></path></g><g class="g.chord"><path class="chordPath" id="TombusviridaeInvertebrates" d="M-4.862252590911404,-138.86477168404983A138.94986979166663,138.94986979166663 0 0,1 -4.862252590911404,-138.86477168404983Q 0,0 138.82257622212114,5.946313662638219A138.94986979166663,138.94986979166663 0 0,1 138.82257622212114,5.946313662638219Q 0,0 -4.862252590911404,-138.86477168404983Z" style="stroke: rgb(0, 134, 139); fill: rgb(0, 134, 139); opacity: 0.3;"></path></g><g class="g.chord"><path class="chordPath" id="FlaviviridaeInvertebrates" d="M-13.25323739316897,-138.31636929055583A138.94986979166663,138.94986979166663 0 0,1 -7.662746108446423,-138.7384180290326Q 0,0 87.1084939533856,108.25514581900526A138.94986979166663,138.94986979166663 0 0,1 82.0488365720141,112.13855149902744Q 0,0 -13.25323739316897,-138.31636929055583Z" style="stroke: rgb(39, 64, 139); fill: rgb(39, 64, 139); opacity: 0.3;"></path></g><g class="g.chord"><path class="chordPath" id="LuteoviridaeInvertebrates" d="M-4.862252590911404,-138.86477168404983A138.94986979166663,138.94986979166663 0 0,1 -4.862252590911404,-138.86477168404983Q 0,0 44.113837745163934,131.76128275982464A138.94986979166663,138.94986979166663 0 0,1 44.113837745163934,131.76128275982464Q 0,0 -4.862252590911404,-138.86477168404983Z" style="stroke: rgb(71, 60, 139); fill: rgb(71, 60, 139); opacity: 0.3;"></path></g><g class="g.chord"><path class="chordPath" id="unclassified_ssRNA_ps_virusesInvertebrates" d="M-21.59568410754183,-137.26140296182453A138.94986979166663,138.94986979166663 0 0,1 -13.25323739316897,-138.31636929055583Q 0,0 34.79004368263123,134.52404683060095A138.94986979166663,138.94986979166663 0 0,1 26.394158886521762,136.41999373916624Q 0,0 -21.59568410754183,-137.26140296182453Z" style="stroke: rgb(81, 81, 81); fill: rgb(81, 81, 81); opacity: 0.3;"></path></g><g class="g.chord"><path class="chordPath" id="CarmotetraviridaeInvertebrates" d="M-7.662746108446423,-138.7384180290326A138.94986979166663,138.94986979166663 0 0,1 -4.862252590911404,-138.86477168404983Q 0,0 5.349481945400233,138.84685577295926A138.94986979166663,138.94986979166663 0 0,1 4.862252590911265,138.86477168404983Q 0,0 -7.662746108446423,-138.7384180290326Z" style="stroke: rgb(34, 139, 34); fill: rgb(34, 139, 34); opacity: 0.3;"></path></g><g class="ticks"><g class="tickst" transform="rotate(-87.99464771704211)translate(146.26302083333331,0)"><line x1="1" y1="0" x2="5" y2="0" style="stroke: rgb(0, 0, 0);"></line><text class="ticksText" x="8" dy=".35em" font-size="9px" font-family="arial">0k</text></g></g><g class="ticks"><g class="tickst" transform="rotate(6.463407504771368)translate(146.26302083333331,0)"><line x1="1" y1="0" x2="5" y2="0" style="stroke: rgb(0, 0, 0);"></line><text class="ticksText" x="8" dy=".35em" font-size="9px" font-family="arial">0k</text></g></g><g class="ticks"><g class="tickst" transform="rotate(57.81874919898044)translate(146.26302083333331,0)"><line x1="1" y1="0" x2="5" y2="0" style="stroke: rgb(0, 0, 0);"></line><text class="ticksText" x="8" dy=".35em" font-size="9px" font-family="arial">0k</text></g></g><g class="ticks"><g class="tickst" transform="rotate(75.50009594974856)translate(146.26302083333331,0)"><line x1="1" y1="0" x2="5" y2="0" style="stroke: rgb(0, 0, 0);"></line><text class="ticksText" x="8" dy=".35em" font-size="9px" font-family="arial">0k</text></g></g><g class="ticks"><g class="tickst" transform="rotate(87.79360350956614)translate(146.26302083333331,0)"><line x1="1" y1="0" x2="5" y2="0" style="stroke: rgb(0, 0, 0);"></line><text class="ticksText" x="8" dy=".35em" font-size="9px" font-family="arial"></text></g></g><g class="ticks"><g class="tickst" transform="rotate(92.00535228295792)translate(146.26302083333331,0)"><line x1="1" y1="0" x2="5" y2="0" style="stroke: rgb(0, 0, 0);"></line><text class="ticksText" x="8" dy=".35em" transform="rotate(180)translate(-16)" font-size="9px" font-family="arial" style="text-anchor: end;">0k</text></g></g><g class="ticks"><g class="tickst" transform="rotate(106.99277943825075)translate(146.26302083333331,0)"><line x1="1" y1="0" x2="5" y2="0" style="stroke: rgb(0, 0, 0);"></line><text class="ticksText" x="8" dy=".35em" transform="rotate(180)translate(-16)" font-size="9px" font-family="arial" style="text-anchor: end;">0k</text></g></g><g class="ticks"><g class="tickst" transform="rotate(228.39003061481696)translate(146.26302083333331,0)"><line x1="1" y1="0" x2="5" y2="0" style="stroke: rgb(0, 0, 0);"></line><text class="ticksText" x="8" dy=".35em" transform="rotate(180)translate(-16)" font-size="9px" font-family="arial" style="text-anchor: end;">0k</text></g></g><g class="ticks"><g class="tickst" transform="rotate(256.84705574748614)translate(146.26302083333331,0)"><line x1="1" y1="0" x2="5" y2="0" style="stroke: rgb(0, 0, 0);"></line><text class="ticksText" x="8" dy=".35em" transform="rotate(180)translate(-16)" font-size="9px" font-family="arial" style="text-anchor: end;"></text></g></g><g class="ticks"><g class="tickst" transform="rotate(261.0588045208779)translate(146.26302083333331,0)"><line x1="1" y1="0" x2="5" y2="0" style="stroke: rgb(0, 0, 0);"></line><text class="ticksText" x="8" dy=".35em" transform="rotate(180)translate(-16)" font-size="9px" font-family="arial" style="text-anchor: end;">0k</text></g></g><g class="ticksP"><g class="tickstP" transform="rotate(-87.99464771704211)translate(194.15611979166664,0)"><text class="ticksText" x="8" dy=".35em" transform="translate(-30)" font-size="9px" font-family="arial">0%</text><line x1="1" y1="0" x2="5" y2="0" style="stroke: rgb(0, 0, 0);"></line></g><g class="tickstP" transform="rotate(-78.83532109242618)translate(194.15611979166664,0)"><text class="ticksText" x="8" dy=".35em" transform="translate(-30)" font-size="9px" font-family="arial">10%</text><line x1="1" y1="0" x2="5" y2="0" style="stroke: rgb(0, 0, 0);"></line></g><g class="tickstP" transform="rotate(-69.67599446781024)translate(194.15611979166664,0)"><text class="ticksText" x="8" dy=".35em" transform="translate(-30)" font-size="9px" font-family="arial">20%</text><line x1="1" y1="0" x2="5" y2="0" style="stroke: rgb(0, 0, 0);"></line></g><g class="tickstP" transform="rotate(-60.51666784319431)translate(194.15611979166664,0)"><text class="ticksText" x="8" dy=".35em" transform="translate(-30)" font-size="9px" font-family="arial">30%</text><line x1="1" y1="0" x2="5" y2="0" style="stroke: rgb(0, 0, 0);"></line></g><g class="tickstP" transform="rotate(-51.35734121857836)translate(194.15611979166664,0)"><text class="ticksText" x="8" dy=".35em" transform="translate(-30)" font-size="9px" font-family="arial">40%</text><line x1="1" y1="0" x2="5" y2="0" style="stroke: rgb(0, 0, 0);"></line></g><g class="tickstP" transform="rotate(-42.198014593962434)translate(194.15611979166664,0)"><text class="ticksText" x="8" dy=".35em" transform="translate(-30)" font-size="9px" font-family="arial">50%</text><line x1="1" y1="0" x2="5" y2="0" style="stroke: rgb(0, 0, 0);"></line></g><g class="tickstP" transform="rotate(-33.0386879693465)translate(194.15611979166664,0)"><text class="ticksText" x="8" dy=".35em" transform="translate(-30)" font-size="9px" font-family="arial">60%</text><line x1="1" y1="0" x2="5" y2="0" style="stroke: rgb(0, 0, 0);"></line></g><g class="tickstP" transform="rotate(-23.879361344730555)translate(194.15611979166664,0)"><text class="ticksText" x="8" dy=".35em" transform="translate(-30)" font-size="9px" font-family="arial">70%</text><line x1="1" y1="0" x2="5" y2="0" style="stroke: rgb(0, 0, 0);"></line></g><g class="tickstP" transform="rotate(-14.720034720114626)translate(194.15611979166664,0)"><text class="ticksText" x="8" dy=".35em" transform="translate(-30)" font-size="9px" font-family="arial">80%</text><line x1="1" y1="0" x2="5" y2="0" style="stroke: rgb(0, 0, 0);"></line></g><g class="tickstP" transform="rotate(-5.560708095498697)translate(194.15611979166664,0)"><text class="ticksText" x="8" dy=".35em" transform="translate(-30)" font-size="9px" font-family="arial">90%</text><line x1="1" y1="0" x2="5" y2="0" style="stroke: rgb(0, 0, 0);"></line></g></g><g class="ticksP"><g class="tickstP" transform="rotate(6.463407504771368)translate(194.15611979166664,0)"><text class="ticksText" x="8" dy=".35em" transform="translate(-30)" font-size="9px" font-family="arial">0%</text><line x1="1" y1="0" x2="5" y2="0" style="stroke: rgb(0, 0, 0);"></line></g><g class="tickstP" transform="rotate(11.312462776626859)translate(194.15611979166664,0)"><text class="ticksText" x="8" dy=".35em" transform="translate(-30)" font-size="9px" font-family="arial">10%</text><line x1="1" y1="0" x2="5" y2="0" style="stroke: rgb(0, 0, 0);"></line></g><g class="tickstP" transform="rotate(16.16151804848235)translate(194.15611979166664,0)"><text class="ticksText" x="8" dy=".35em" transform="translate(-30)" font-size="9px" font-family="arial">20%</text><line x1="1" y1="0" x2="5" y2="0" style="stroke: rgb(0, 0, 0);"></line></g><g class="tickstP" transform="rotate(21.01057332033784)translate(194.15611979166664,0)"><text class="ticksText" x="8" dy=".35em" transform="translate(-30)" font-size="9px" font-family="arial">30%</text><line x1="1" y1="0" x2="5" y2="0" style="stroke: rgb(0, 0, 0);"></line></g><g class="tickstP" transform="rotate(25.85962859219336)translate(194.15611979166664,0)"><text class="ticksText" x="8" dy=".35em" transform="translate(-30)" font-size="9px" font-family="arial">40%</text><line x1="1" y1="0" x2="5" y2="0" style="stroke: rgb(0, 0, 0);"></line></g><g class="tickstP" transform="rotate(30.708683864048865)translate(194.15611979166664,0)"><text class="ticksText" x="8" dy=".35em" transform="translate(-30)" font-size="9px" font-family="arial">50%</text><line x1="1" y1="0" x2="5" y2="0" style="stroke: rgb(0, 0, 0);"></line></g><g class="tickstP" transform="rotate(35.557739135904356)translate(194.15611979166664,0)"><text class="ticksText" x="8" dy=".35em" transform="translate(-30)" font-size="9px" font-family="arial">60%</text><line x1="1" y1="0" x2="5" y2="0" style="stroke: rgb(0, 0, 0);"></line></g><g class="tickstP" transform="rotate(40.40679440775983)translate(194.15611979166664,0)"><text class="ticksText" x="8" dy=".35em" transform="translate(-30)" font-size="9px" font-family="arial">70%</text><line x1="1" y1="0" x2="5" y2="0" style="stroke: rgb(0, 0, 0);"></line></g><g class="tickstP" transform="rotate(45.25584967961535)translate(194.15611979166664,0)"><text class="ticksText" x="8" dy=".35em" transform="translate(-30)" font-size="9px" font-family="arial">80%</text><line x1="1" y1="0" x2="5" y2="0" style="stroke: rgb(0, 0, 0);"></line></g><g class="tickstP" transform="rotate(50.10490495147084)translate(194.15611979166664,0)"><text class="ticksText" x="8" dy=".35em" transform="translate(-30)" font-size="9px" font-family="arial">90%</text><line x1="1" y1="0" x2="5" y2="0" style="stroke: rgb(0, 0, 0);"></line></g></g><g class="ticksP"><g class="tickstP" transform="rotate(57.81874919898044)translate(194.15611979166664,0)"><text class="ticksText" x="8" dy=".35em" transform="translate(-30)" font-size="9px" font-family="arial"></text><line x1="1" y1="0" x2="5" y2="0" style="stroke: rgb(0, 0, 0);"></line></g><g class="tickstP" transform="rotate(59.30040497649185)translate(194.15611979166664,0)"><text class="ticksText" x="8" dy=".35em" transform="translate(-30)" font-size="9px" font-family="arial"></text><line x1="1" y1="0" x2="5" y2="0" style="stroke: rgb(0, 0, 0);"></line></g><g class="tickstP" transform="rotate(60.782060754003254)translate(194.15611979166664,0)"><text class="ticksText" x="8" dy=".35em" transform="translate(-30)" font-size="9px" font-family="arial"></text><line x1="1" y1="0" x2="5" y2="0" style="stroke: rgb(0, 0, 0);"></line></g><g class="tickstP" transform="rotate(62.26371653151463)translate(194.15611979166664,0)"><text class="ticksText" x="8" dy=".35em" transform="translate(-30)" font-size="9px" font-family="arial"></text><line x1="1" y1="0" x2="5" y2="0" style="stroke: rgb(0, 0, 0);"></line></g><g class="tickstP" transform="rotate(63.74537230902604)translate(194.15611979166664,0)"><text class="ticksText" x="8" dy=".35em" transform="translate(-30)" font-size="9px" font-family="arial"></text><line x1="1" y1="0" x2="5" y2="0" style="stroke: rgb(0, 0, 0);"></line></g><g class="tickstP" transform="rotate(65.22702808653744)translate(194.15611979166664,0)"><text class="ticksText" x="8" dy=".35em" transform="translate(-30)" font-size="9px" font-family="arial"></text><line x1="1" y1="0" x2="5" y2="0" style="stroke: rgb(0, 0, 0);"></line></g><g class="tickstP" transform="rotate(66.70868386404885)translate(194.15611979166664,0)"><text class="ticksText" x="8" dy=".35em" transform="translate(-30)" font-size="9px" font-family="arial"></text><line x1="1" y1="0" x2="5" y2="0" style="stroke: rgb(0, 0, 0);"></line></g><g class="tickstP" transform="rotate(68.19033964156026)translate(194.15611979166664,0)"><text class="ticksText" x="8" dy=".35em" transform="translate(-30)" font-size="9px" font-family="arial"></text><line x1="1" y1="0" x2="5" y2="0" style="stroke: rgb(0, 0, 0);"></line></g><g class="tickstP" transform="rotate(69.67199541907166)translate(194.15611979166664,0)"><text class="ticksText" x="8" dy=".35em" transform="translate(-30)" font-size="9px" font-family="arial"></text><line x1="1" y1="0" x2="5" y2="0" style="stroke: rgb(0, 0, 0);"></line></g><g class="tickstP" transform="rotate(71.15365119658304)translate(194.15611979166664,0)"><text class="ticksText" x="8" dy=".35em" transform="translate(-30)" font-size="9px" font-family="arial"></text><line x1="1" y1="0" x2="5" y2="0" style="stroke: rgb(0, 0, 0);"></line></g></g><g class="ticksP"><g class="tickstP" transform="rotate(75.50009594974856)translate(194.15611979166664,0)"><text class="ticksText" x="8" dy=".35em" transform="translate(-30)" font-size="9px" font-family="arial"></text><line x1="1" y1="0" x2="5" y2="0" style="stroke: rgb(0, 0, 0);"></line></g><g class="tickstP" transform="rotate(76.44296780816492)translate(194.15611979166664,0)"><text class="ticksText" x="8" dy=".35em" transform="translate(-30)" font-size="9px" font-family="arial"></text><line x1="1" y1="0" x2="5" y2="0" style="stroke: rgb(0, 0, 0);"></line></g><g class="tickstP" transform="rotate(77.38583966658126)translate(194.15611979166664,0)"><text class="ticksText" x="8" dy=".35em" transform="translate(-30)" font-size="9px" font-family="arial"></text><line x1="1" y1="0" x2="5" y2="0" style="stroke: rgb(0, 0, 0);"></line></g><g class="tickstP" transform="rotate(78.3287115249976)translate(194.15611979166664,0)"><text class="ticksText" x="8" dy=".35em" transform="translate(-30)" font-size="9px" font-family="arial"></text><line x1="1" y1="0" x2="5" y2="0" style="stroke: rgb(0, 0, 0);"></line></g><g class="tickstP" transform="rotate(79.27158338341391)translate(194.15611979166664,0)"><text class="ticksText" x="8" dy=".35em" transform="translate(-30)" font-size="9px" font-family="arial"></text><line x1="1" y1="0" x2="5" y2="0" style="stroke: rgb(0, 0, 0);"></line></g><g class="tickstP" transform="rotate(80.21445524183031)translate(194.15611979166664,0)"><text class="ticksText" x="8" dy=".35em" transform="translate(-30)" font-size="9px" font-family="arial"></text><line x1="1" y1="0" x2="5" y2="0" style="stroke: rgb(0, 0, 0);"></line></g><g class="tickstP" transform="rotate(81.15732710024662)translate(194.15611979166664,0)"><text class="ticksText" x="8" dy=".35em" transform="translate(-30)" font-size="9px" font-family="arial"></text><line x1="1" y1="0" x2="5" y2="0" style="stroke: rgb(0, 0, 0);"></line></g><g class="tickstP" transform="rotate(82.10019895866301)translate(194.15611979166664,0)"><text class="ticksText" x="8" dy=".35em" transform="translate(-30)" font-size="9px" font-family="arial"></text><line x1="1" y1="0" x2="5" y2="0" style="stroke: rgb(0, 0, 0);"></line></g><g class="tickstP" transform="rotate(83.04307081707933)translate(194.15611979166664,0)"><text class="ticksText" x="8" dy=".35em" transform="translate(-30)" font-size="9px" font-family="arial"></text><line x1="1" y1="0" x2="5" y2="0" style="stroke: rgb(0, 0, 0);"></line></g><g class="tickstP" transform="rotate(83.98594267549566)translate(194.15611979166664,0)"><text class="ticksText" x="8" dy=".35em" transform="translate(-30)" font-size="9px" font-family="arial"></text><line x1="1" y1="0" x2="5" y2="0" style="stroke: rgb(0, 0, 0);"></line></g></g><g class="ticksP"><g class="tickstP" transform="rotate(87.79360350956614)translate(194.15611979166664,0)"><text class="ticksText" x="8" dy=".35em" transform="translate(-30)" font-size="9px" font-family="arial"></text><line x1="1" y1="0" x2="5" y2="0" style="stroke: rgb(0, 0, 0);"></line></g><g class="tickstP" transform="rotate(87.92829948933993)translate(194.15611979166664,0)"><text class="ticksText" x="8" dy=".35em" transform="translate(-30)" font-size="9px" font-family="arial"></text><line x1="1" y1="0" x2="5" y2="0" style="stroke: rgb(0, 0, 0);"></line></g><g class="tickstP" transform="rotate(88.06299546911367)translate(194.15611979166664,0)"><text class="ticksText" x="8" dy=".35em" transform="translate(-30)" font-size="9px" font-family="arial"></text><line x1="1" y1="0" x2="5" y2="0" style="stroke: rgb(0, 0, 0);"></line></g><g class="tickstP" transform="rotate(88.19769144888741)translate(194.15611979166664,0)"><text class="ticksText" x="8" dy=".35em" transform="translate(-30)" font-size="9px" font-family="arial"></text><line x1="1" y1="0" x2="5" y2="0" style="stroke: rgb(0, 0, 0);"></line></g><g class="tickstP" transform="rotate(88.3323874286612)translate(194.15611979166664,0)"><text class="ticksText" x="8" dy=".35em" transform="translate(-30)" font-size="9px" font-family="arial"></text><line x1="1" y1="0" x2="5" y2="0" style="stroke: rgb(0, 0, 0);"></line></g><g class="tickstP" transform="rotate(88.46708340843497)translate(194.15611979166664,0)"><text class="ticksText" x="8" dy=".35em" transform="translate(-30)" font-size="9px" font-family="arial"></text><line x1="1" y1="0" x2="5" y2="0" style="stroke: rgb(0, 0, 0);"></line></g><g class="tickstP" transform="rotate(88.60177938820871)translate(194.15611979166664,0)"><text class="ticksText" x="8" dy=".35em" transform="translate(-30)" font-size="9px" font-family="arial"></text><line x1="1" y1="0" x2="5" y2="0" style="stroke: rgb(0, 0, 0);"></line></g><g class="tickstP" transform="rotate(88.73647536798248)translate(194.15611979166664,0)"><text class="ticksText" x="8" dy=".35em" transform="translate(-30)" font-size="9px" font-family="arial"></text><line x1="1" y1="0" x2="5" y2="0" style="stroke: rgb(0, 0, 0);"></line></g><g class="tickstP" transform="rotate(88.87117134775625)translate(194.15611979166664,0)"><text class="ticksText" x="8" dy=".35em" transform="translate(-30)" font-size="9px" font-family="arial"></text><line x1="1" y1="0" x2="5" y2="0" style="stroke: rgb(0, 0, 0);"></line></g><g class="tickstP" transform="rotate(89.00586732752998)translate(194.15611979166664,0)"><text class="ticksText" x="8" dy=".35em" transform="translate(-30)" font-size="9px" font-family="arial"></text><line x1="1" y1="0" x2="5" y2="0" style="stroke: rgb(0, 0, 0);"></line></g></g><g class="ticksP"><g class="tickstP" transform="rotate(92.00535228295792)translate(189.15611979166664,0)"><text class="ticksText" x="8" dy=".35em" transform="rotate(180)translate(18)" font-size="9px" font-family="arial" style="text-anchor: end;"></text><line x1="1" y1="0" x2="5" y2="0" style="stroke: rgb(0, 0, 0);"></line></g><g class="tickstP" transform="rotate(93.21761610092176)translate(189.15611979166664,0)"><text class="ticksText" x="8" dy=".35em" transform="rotate(180)translate(18)" font-size="9px" font-family="arial" style="text-anchor: end;"></text><line x1="1" y1="0" x2="5" y2="0" style="stroke: rgb(0, 0, 0);"></line></g><g class="tickstP" transform="rotate(94.42987991888563)translate(189.15611979166664,0)"><text class="ticksText" x="8" dy=".35em" transform="rotate(180)translate(18)" font-size="9px" font-family="arial" style="text-anchor: end;"></text><line x1="1" y1="0" x2="5" y2="0" style="stroke: rgb(0, 0, 0);"></line></g><g class="tickstP" transform="rotate(95.6421437368495)translate(189.15611979166664,0)"><text class="ticksText" x="8" dy=".35em" transform="rotate(180)translate(18)" font-size="9px" font-family="arial" style="text-anchor: end;"></text><line x1="1" y1="0" x2="5" y2="0" style="stroke: rgb(0, 0, 0);"></line></g><g class="tickstP" transform="rotate(96.8544075548134)translate(189.15611979166664,0)"><text class="ticksText" x="8" dy=".35em" transform="rotate(180)translate(18)" font-size="9px" font-family="arial" style="text-anchor: end;"></text><line x1="1" y1="0" x2="5" y2="0" style="stroke: rgb(0, 0, 0);"></line></g><g class="tickstP" transform="rotate(98.06667137277728)translate(189.15611979166664,0)"><text class="ticksText" x="8" dy=".35em" transform="rotate(180)translate(18)" font-size="9px" font-family="arial" style="text-anchor: end;"></text><line x1="1" y1="0" x2="5" y2="0" style="stroke: rgb(0, 0, 0);"></line></g><g class="tickstP" transform="rotate(99.27893519074115)translate(189.15611979166664,0)"><text class="ticksText" x="8" dy=".35em" transform="rotate(180)translate(18)" font-size="9px" font-family="arial" style="text-anchor: end;"></text><line x1="1" y1="0" x2="5" y2="0" style="stroke: rgb(0, 0, 0);"></line></g><g class="tickstP" transform="rotate(100.491199008705)translate(189.15611979166664,0)"><text class="ticksText" x="8" dy=".35em" transform="rotate(180)translate(18)" font-size="9px" font-family="arial" style="text-anchor: end;"></text><line x1="1" y1="0" x2="5" y2="0" style="stroke: rgb(0, 0, 0);"></line></g><g class="tickstP" transform="rotate(101.7034628266689)translate(189.15611979166664,0)"><text class="ticksText" x="8" dy=".35em" transform="rotate(180)translate(18)" font-size="9px" font-family="arial" style="text-anchor: end;"></text><line x1="1" y1="0" x2="5" y2="0" style="stroke: rgb(0, 0, 0);"></line></g><g class="tickstP" transform="rotate(102.91572664463277)translate(189.15611979166664,0)"><text class="ticksText" x="8" dy=".35em" transform="rotate(180)translate(18)" font-size="9px" font-family="arial" style="text-anchor: end;"></text><line x1="1" y1="0" x2="5" y2="0" style="stroke: rgb(0, 0, 0);"></line></g></g><g class="ticksP"><g class="tickstP" transform="rotate(106.99277943825075)translate(189.15611979166664,0)"><text class="ticksText" x="8" dy=".35em" transform="rotate(180)translate(18)" font-size="9px" font-family="arial" style="text-anchor: end;">0%</text><line x1="1" y1="0" x2="5" y2="0" style="stroke: rgb(0, 0, 0);"></line></g><g class="tickstP" transform="rotate(118.84602565834197)translate(189.15611979166664,0)"><text class="ticksText" x="8" dy=".35em" transform="rotate(180)translate(18)" font-size="9px" font-family="arial" style="text-anchor: end;">10%</text><line x1="1" y1="0" x2="5" y2="0" style="stroke: rgb(0, 0, 0);"></line></g><g class="tickstP" transform="rotate(130.69927187843317)translate(189.15611979166664,0)"><text class="ticksText" x="8" dy=".35em" transform="rotate(180)translate(18)" font-size="9px" font-family="arial" style="text-anchor: end;">20%</text><line x1="1" y1="0" x2="5" y2="0" style="stroke: rgb(0, 0, 0);"></line></g><g class="tickstP" transform="rotate(142.5525180985244)translate(189.15611979166664,0)"><text class="ticksText" x="8" dy=".35em" transform="rotate(180)translate(18)" font-size="9px" font-family="arial" style="text-anchor: end;">30%</text><line x1="1" y1="0" x2="5" y2="0" style="stroke: rgb(0, 0, 0);"></line></g><g class="tickstP" transform="rotate(154.4057643186156)translate(189.15611979166664,0)"><text class="ticksText" x="8" dy=".35em" transform="rotate(180)translate(18)" font-size="9px" font-family="arial" style="text-anchor: end;">40%</text><line x1="1" y1="0" x2="5" y2="0" style="stroke: rgb(0, 0, 0);"></line></g><g class="tickstP" transform="rotate(166.25901053870683)translate(189.15611979166664,0)"><text class="ticksText" x="8" dy=".35em" transform="rotate(180)translate(18)" font-size="9px" font-family="arial" style="text-anchor: end;">50%</text><line x1="1" y1="0" x2="5" y2="0" style="stroke: rgb(0, 0, 0);"></line></g><g class="tickstP" transform="rotate(178.11225675879797)translate(189.15611979166664,0)"><text class="ticksText" x="8" dy=".35em" transform="rotate(180)translate(18)" font-size="9px" font-family="arial" style="text-anchor: end;">60%</text><line x1="1" y1="0" x2="5" y2="0" style="stroke: rgb(0, 0, 0);"></line></g><g class="tickstP" transform="rotate(189.96550297888922)translate(189.15611979166664,0)"><text class="ticksText" x="8" dy=".35em" transform="rotate(180)translate(18)" font-size="9px" font-family="arial" style="text-anchor: end;">70%</text><line x1="1" y1="0" x2="5" y2="0" style="stroke: rgb(0, 0, 0);"></line></g><g class="tickstP" transform="rotate(201.8187491989804)translate(189.15611979166664,0)"><text class="ticksText" x="8" dy=".35em" transform="rotate(180)translate(18)" font-size="9px" font-family="arial" style="text-anchor: end;">80%</text><line x1="1" y1="0" x2="5" y2="0" style="stroke: rgb(0, 0, 0);"></line></g><g class="tickstP" transform="rotate(213.6719954190716)translate(189.15611979166664,0)"><text class="ticksText" x="8" dy=".35em" transform="rotate(180)translate(18)" font-size="9px" font-family="arial" style="text-anchor: end;">90%</text><line x1="1" y1="0" x2="5" y2="0" style="stroke: rgb(0, 0, 0);"></line></g></g><g class="ticksP"><g class="tickstP" transform="rotate(228.39003061481696)translate(189.15611979166664,0)"><text class="ticksText" x="8" dy=".35em" transform="rotate(180)translate(18)" font-size="9px" font-family="arial" style="text-anchor: end;">0%</text><line x1="1" y1="0" x2="5" y2="0" style="stroke: rgb(0, 0, 0);"></line></g><g class="tickstP" transform="rotate(230.94925423051848)translate(189.15611979166664,0)"><text class="ticksText" x="8" dy=".35em" transform="rotate(180)translate(18)" font-size="9px" font-family="arial" style="text-anchor: end;">10%</text><line x1="1" y1="0" x2="5" y2="0" style="stroke: rgb(0, 0, 0);"></line></g><g class="tickstP" transform="rotate(233.50847784622)translate(189.15611979166664,0)"><text class="ticksText" x="8" dy=".35em" transform="rotate(180)translate(18)" font-size="9px" font-family="arial" style="text-anchor: end;">20%</text><line x1="1" y1="0" x2="5" y2="0" style="stroke: rgb(0, 0, 0);"></line></g><g class="tickstP" transform="rotate(236.0677014619215)translate(189.15611979166664,0)"><text class="ticksText" x="8" dy=".35em" transform="rotate(180)translate(18)" font-size="9px" font-family="arial" style="text-anchor: end;">30%</text><line x1="1" y1="0" x2="5" y2="0" style="stroke: rgb(0, 0, 0);"></line></g><g class="tickstP" transform="rotate(238.62692507762296)translate(189.15611979166664,0)"><text class="ticksText" x="8" dy=".35em" transform="rotate(180)translate(18)" font-size="9px" font-family="arial" style="text-anchor: end;">40%</text><line x1="1" y1="0" x2="5" y2="0" style="stroke: rgb(0, 0, 0);"></line></g><g class="tickstP" transform="rotate(241.18614869332447)translate(189.15611979166664,0)"><text class="ticksText" x="8" dy=".35em" transform="rotate(180)translate(18)" font-size="9px" font-family="arial" style="text-anchor: end;">50%</text><line x1="1" y1="0" x2="5" y2="0" style="stroke: rgb(0, 0, 0);"></line></g><g class="tickstP" transform="rotate(243.74537230902604)translate(189.15611979166664,0)"><text class="ticksText" x="8" dy=".35em" transform="rotate(180)translate(18)" font-size="9px" font-family="arial" style="text-anchor: end;">60%</text><line x1="1" y1="0" x2="5" y2="0" style="stroke: rgb(0, 0, 0);"></line></g><g class="tickstP" transform="rotate(246.30459592472755)translate(189.15611979166664,0)"><text class="ticksText" x="8" dy=".35em" transform="rotate(180)translate(18)" font-size="9px" font-family="arial" style="text-anchor: end;">70%</text><line x1="1" y1="0" x2="5" y2="0" style="stroke: rgb(0, 0, 0);"></line></g><g class="tickstP" transform="rotate(248.863819540429)translate(189.15611979166664,0)"><text class="ticksText" x="8" dy=".35em" transform="rotate(180)translate(18)" font-size="9px" font-family="arial" style="text-anchor: end;">80%</text><line x1="1" y1="0" x2="5" y2="0" style="stroke: rgb(0, 0, 0);"></line></g><g class="tickstP" transform="rotate(251.42304315613052)translate(189.15611979166664,0)"><text class="ticksText" x="8" dy=".35em" transform="rotate(180)translate(18)" font-size="9px" font-family="arial" style="text-anchor: end;">90%</text><line x1="1" y1="0" x2="5" y2="0" style="stroke: rgb(0, 0, 0);"></line></g></g><g class="ticksP"><g class="tickstP" transform="rotate(256.84705574748614)translate(189.15611979166664,0)"><text class="ticksText" x="8" dy=".35em" transform="rotate(180)translate(18)" font-size="9px" font-family="arial" style="text-anchor: end;"></text><line x1="1" y1="0" x2="5" y2="0" style="stroke: rgb(0, 0, 0);"></line></g><g class="tickstP" transform="rotate(256.9817517272599)translate(189.15611979166664,0)"><text class="ticksText" x="8" dy=".35em" transform="rotate(180)translate(18)" font-size="9px" font-family="arial" style="text-anchor: end;"></text><line x1="1" y1="0" x2="5" y2="0" style="stroke: rgb(0, 0, 0);"></line></g><g class="tickstP" transform="rotate(257.11644770703367)translate(189.15611979166664,0)"><text class="ticksText" x="8" dy=".35em" transform="rotate(180)translate(18)" font-size="9px" font-family="arial" style="text-anchor: end;"></text><line x1="1" y1="0" x2="5" y2="0" style="stroke: rgb(0, 0, 0);"></line></g><g class="tickstP" transform="rotate(257.2511436868075)translate(189.15611979166664,0)"><text class="ticksText" x="8" dy=".35em" transform="rotate(180)translate(18)" font-size="9px" font-family="arial" style="text-anchor: end;"></text><line x1="1" y1="0" x2="5" y2="0" style="stroke: rgb(0, 0, 0);"></line></g><g class="tickstP" transform="rotate(257.38583966658126)translate(189.15611979166664,0)"><text class="ticksText" x="8" dy=".35em" transform="rotate(180)translate(18)" font-size="9px" font-family="arial" style="text-anchor: end;"></text><line x1="1" y1="0" x2="5" y2="0" style="stroke: rgb(0, 0, 0);"></line></g><g class="tickstP" transform="rotate(257.520535646355)translate(189.15611979166664,0)"><text class="ticksText" x="8" dy=".35em" transform="rotate(180)translate(18)" font-size="9px" font-family="arial" style="text-anchor: end;"></text><line x1="1" y1="0" x2="5" y2="0" style="stroke: rgb(0, 0, 0);"></line></g><g class="tickstP" transform="rotate(257.65523162612874)translate(189.15611979166664,0)"><text class="ticksText" x="8" dy=".35em" transform="rotate(180)translate(18)" font-size="9px" font-family="arial" style="text-anchor: end;"></text><line x1="1" y1="0" x2="5" y2="0" style="stroke: rgb(0, 0, 0);"></line></g><g class="tickstP" transform="rotate(257.7899276059025)translate(189.15611979166664,0)"><text class="ticksText" x="8" dy=".35em" transform="rotate(180)translate(18)" font-size="9px" font-family="arial" style="text-anchor: end;"></text><line x1="1" y1="0" x2="5" y2="0" style="stroke: rgb(0, 0, 0);"></line></g><g class="tickstP" transform="rotate(257.9246235856762)translate(189.15611979166664,0)"><text class="ticksText" x="8" dy=".35em" transform="rotate(180)translate(18)" font-size="9px" font-family="arial" style="text-anchor: end;"></text><line x1="1" y1="0" x2="5" y2="0" style="stroke: rgb(0, 0, 0);"></line></g><g class="tickstP" transform="rotate(258.05931956545004)translate(189.15611979166664,0)"><text class="ticksText" x="8" dy=".35em" transform="rotate(180)translate(18)" font-size="9px" font-family="arial" style="text-anchor: end;"></text><line x1="1" y1="0" x2="5" y2="0" style="stroke: rgb(0, 0, 0);"></line></g></g><g class="ticksP"><g class="tickstP" transform="rotate(261.0588045208779)translate(189.15611979166664,0)"><text class="ticksText" x="8" dy=".35em" transform="rotate(180)translate(18)" font-size="9px" font-family="arial" style="text-anchor: end;"></text><line x1="1" y1="0" x2="5" y2="0" style="stroke: rgb(0, 0, 0);"></line></g><g class="tickstP" transform="rotate(261.8669803995205)translate(189.15611979166664,0)"><text class="ticksText" x="8" dy=".35em" transform="rotate(180)translate(18)" font-size="9px" font-family="arial" style="text-anchor: end;"></text><line x1="1" y1="0" x2="5" y2="0" style="stroke: rgb(0, 0, 0);"></line></g><g class="tickstP" transform="rotate(262.6751562781631)translate(189.15611979166664,0)"><text class="ticksText" x="8" dy=".35em" transform="rotate(180)translate(18)" font-size="9px" font-family="arial" style="text-anchor: end;"></text><line x1="1" y1="0" x2="5" y2="0" style="stroke: rgb(0, 0, 0);"></line></g><g class="tickstP" transform="rotate(263.48333215680566)translate(189.15611979166664,0)"><text class="ticksText" x="8" dy=".35em" transform="rotate(180)translate(18)" font-size="9px" font-family="arial" style="text-anchor: end;"></text><line x1="1" y1="0" x2="5" y2="0" style="stroke: rgb(0, 0, 0);"></line></g><g class="tickstP" transform="rotate(264.2915080354482)translate(189.15611979166664,0)"><text class="ticksText" x="8" dy=".35em" transform="rotate(180)translate(18)" font-size="9px" font-family="arial" style="text-anchor: end;"></text><line x1="1" y1="0" x2="5" y2="0" style="stroke: rgb(0, 0, 0);"></line></g><g class="tickstP" transform="rotate(265.0996839140908)translate(189.15611979166664,0)"><text class="ticksText" x="8" dy=".35em" transform="rotate(180)translate(18)" font-size="9px" font-family="arial" style="text-anchor: end;"></text><line x1="1" y1="0" x2="5" y2="0" style="stroke: rgb(0, 0, 0);"></line></g><g class="tickstP" transform="rotate(265.9078597927334)translate(189.15611979166664,0)"><text class="ticksText" x="8" dy=".35em" transform="rotate(180)translate(18)" font-size="9px" font-family="arial" style="text-anchor: end;"></text><line x1="1" y1="0" x2="5" y2="0" style="stroke: rgb(0, 0, 0);"></line></g><g class="tickstP" transform="rotate(266.71603567137595)translate(189.15611979166664,0)"><text class="ticksText" x="8" dy=".35em" transform="rotate(180)translate(18)" font-size="9px" font-family="arial" style="text-anchor: end;"></text><line x1="1" y1="0" x2="5" y2="0" style="stroke: rgb(0, 0, 0);"></line></g><g class="tickstP" transform="rotate(267.5242115500186)translate(189.15611979166664,0)"><text class="ticksText" x="8" dy=".35em" transform="rotate(180)translate(18)" font-size="9px" font-family="arial" style="text-anchor: end;"></text><line x1="1" y1="0" x2="5" y2="0" style="stroke: rgb(0, 0, 0);"></line></g><g class="tickstP" transform="rotate(268.33238742866115)translate(189.15611979166664,0)"><text class="ticksText" x="8" dy=".35em" transform="rotate(180)translate(18)" font-size="9px" font-family="arial" style="text-anchor: end;"></text><line x1="1" y1="0" x2="5" y2="0" style="stroke: rgb(0, 0, 0);"></line></g></g></g><text font-family="arial" text-anchor="middle" font-size="20px" transform="translate(438.7890625,80)"></text></svg>