<svg xmlns="http://www.w3.org/2000/svg" xmlns:xlink="http://www.w3.org/1999/xlink" width="1240" height="651" style="border: 1px solid black; overflow: hidden;"><defs/><g id="container"><g id="container_1" transform="matrix(2.2548,0.0000,0.0000,2.2548,59.6875,108.56)"><g id="container_2"/><g id="container_3"/><g id="container_4"><g id="I2"><path d="M 1005 30L 94.5312464300619 30" style="fill:none;stroke:#aaaaaa;stroke-width:0.3;stroke-linecap:round;stroke-miterlimit:10;stroke-dasharray:5,10;" id="shape"/><text id="text" transform="matrix(1.0000,0.0000,0.0000,1.0000,1005.0000,39.90)" fill="#000000" style="font-size:30px;font-family:Arial;">NC 004142</text><path d="M 94.5312464300619 30L 0 30" style="fill:none;stroke:#000000;stroke-width:4;stroke-linecap:round;stroke-miterlimit:10;" id="shape_1"/></g><g id="I5"><path d="M 1005 90L 67.23401059335265 90" style="fill:none;stroke:#aaaaaa;stroke-width:0.3;stroke-linecap:round;stroke-miterlimit:10;stroke-dasharray:5,10;" id="shape_2"/><text id="text_1" transform="matrix(1.0000,0.0000,0.0000,1.0000,1005.0000,99.90)" fill="#000000" style="font-size:30px;font-family:Arial;">NC 004146</text><path d="M 67.23401059335265 90L 65.44686725784732 90" style="fill:none;stroke:#000000;stroke-width:4;stroke-linecap:round;stroke-miterlimit:10;" id="shape_3"/></g><g id="I0"><path d="M 0 37.5L 0 37.5M 0 75L 0 0" style="fill:none;stroke:#000000;stroke-width:4;stroke-linecap:round;stroke-miterlimit:10;" id="shape_4"/></g><g id="I3"><path d="M 65.44686725784732 75L 0 75M 65.44686725784732 90L 65.44686725784732 60" style="fill:none;stroke:#00ff00;stroke-width:4;stroke-linecap:round;stroke-miterlimit:10;" id="shape_5"/></g><g id="I4"><path d="M 1005 60L 73.12791199998088 60" style="fill:none;stroke:#aaaaaa;stroke-width:0.3;stroke-linecap:round;stroke-miterlimit:10;stroke-dasharray:5,10;" id="shape_6"/><text id="text_2" transform="matrix(1.0000,0.0000,0.0000,1.0000,1005.0000,69.90)" fill="#000000" style="font-size:30px;font-family:Arial;">NC 001411</text><path d="M 73.12791199998088 60L 65.44686725784732 60" style="fill:none;stroke:#000000;stroke-width:4;stroke-linecap:round;stroke-miterlimit:10;" id="shape_7"/></g><g id="I1"><path d="M 1005 0L 1000 0" style="fill:none;stroke:#aaaaaa;stroke-width:0.3;stroke-linecap:round;stroke-miterlimit:10;stroke-dasharray:5,10;" id="shape_8"/><text id="text_3" transform="matrix(1.0000,0.0000,0.0000,1.0000,1005.0000,9.90)" fill="#000000" style="font-size:30px;font-family:Arial;">NC 005094</text><path d="M 1000 0L 0 0" style="fill:none;stroke:#000000;stroke-width:4;stroke-linecap:round;stroke-miterlimit:10;" id="shape_9"/></g></g><g id="container_5"/><g id="container_6"/><g id="container_7"/><g id="container_8"/><g id="container_9"/></g><g id="container_10" transform="matrix(1.0000,0.0000,0.0000,1.0000,100.0000,100.00)"/><g id="container_11" transform="matrix(1.0000,0.0000,0.0000,1.0000,45.0000,36.00)"><path d="M 0 -3L 0 3M 0 0L 94.02306118665416 0M 94.02306118665416 -3L 94.02306118665416 3" style="fill:none;stroke:#000;stroke-width:0.5;stroke-linecap:round;stroke-miterlimit:10;" id="shape_11" transform="matrix(2.2548,0.0000,0.0000,1.0000,105.7373,8.00)"/><text id="text_4" transform="matrix(1.0000,0.0000,0.0000,1.0000,0.0000,10.22)" fill="#555" style="font-weight:bold;font-size:14px;font-family:Arial;">Tree scale: 0.1</text></g></g></svg>