<svg xmlns="http://www.w3.org/2000/svg" xmlns:xlink="http://www.w3.org/1999/xlink" width="1240" height="651" style="border: 1px solid black; overflow: hidden;"><defs/><g id="container"><g id="container_1" transform="matrix(0.6985,0.0000,0.0000,0.6985,52.0000,99.00)"><g id="container_2"/><g id="container_3"><text id="text" transform="matrix(1.0000,0.0000,0.0000,1.0000,307.9288,-18.24)" fill="#000000" text-anchor="middle" style="font-size:12px;font-family:Arial;">0.5</text><path d="M 307.92876287316204 -15L 307.92876287316204 345.00000000000006" style="fill:none;stroke:#9400d3;stroke-linecap:butt;stroke-miterlimit:10;" id="shape"/><text id="text_1" transform="matrix(1.0000,0.0000,0.0000,1.0000,615.8575,-18.24)" fill="#000000" text-anchor="middle" style="font-size:12px;font-family:Arial;">1</text><path d="M 615.8575257463241 -15L 615.8575257463241 345.00000000000006" style="fill:none;stroke:#9400d3;stroke-linecap:butt;stroke-miterlimit:10;" id="shape_1"/><text id="text_2" transform="matrix(1.0000,0.0000,0.0000,1.0000,923.7863,-18.24)" fill="#000000" text-anchor="middle" style="font-size:12px;font-family:Arial;">1.5</text><path d="M 923.7862886194862 -15L 923.7862886194862 345.00000000000006" style="fill:none;stroke:#9400d3;stroke-linecap:butt;stroke-miterlimit:10;" id="shape_2"/><text id="text_3" transform="matrix(1.0000,0.0000,0.0000,1.0000,76.9822,-18.24)" fill="#000000" text-anchor="middle" style="font-size:12px;font-family:Arial;">0.125</text><path d="M 77.98219071829051 -15L 77.98219071829051 345.00000000000006" style="fill:none;stroke:#ff8000;stroke-linecap:butt;stroke-miterlimit:10;" id="shape_3"/><text id="text_4" transform="matrix(1.0000,0.0000,0.0000,1.0000,153.9644,-18.24)" fill="#000000" text-anchor="middle" style="font-size:12px;font-family:Arial;">0.25</text><path d="M 154.96438143658102 -15L 154.96438143658102 345.00000000000006" style="fill:none;stroke:#ff8000;stroke-linecap:butt;stroke-miterlimit:10;" id="shape_4"/><text id="text_5" transform="matrix(1.0000,0.0000,0.0000,1.0000,230.9466,-18.24)" fill="#000000" text-anchor="middle" style="font-size:12px;font-family:Arial;">0.375</text><path d="M 231.94657215487155 -15L 231.94657215487155 345.00000000000006" style="fill:none;stroke:#ff8000;stroke-linecap:butt;stroke-miterlimit:10;" id="shape_5"/><text id="text_6" transform="matrix(1.0000,0.0000,0.0000,1.0000,384.9110,-18.24)" fill="#000000" text-anchor="middle" style="font-size:12px;font-family:Arial;">0.625</text><path d="M 385.91095359145254 -15L 385.91095359145254 345.00000000000006" style="fill:none;stroke:#ff8000;stroke-linecap:butt;stroke-miterlimit:10;" id="shape_6"/><text id="text_7" transform="matrix(1.0000,0.0000,0.0000,1.0000,461.8931,-18.24)" fill="#000000" text-anchor="middle" style="font-size:12px;font-family:Arial;">0.75</text><path d="M 462.89314430974304 -15L 462.89314430974304 345.00000000000006" style="fill:none;stroke:#ff8000;stroke-linecap:butt;stroke-miterlimit:10;" id="shape_7"/><text id="text_8" transform="matrix(1.0000,0.0000,0.0000,1.0000,538.8753,-18.24)" fill="#000000" text-anchor="middle" style="font-size:12px;font-family:Arial;">0.875</text><path d="M 539.8753350280335 -15L 539.8753350280335 345.00000000000006" style="fill:none;stroke:#ff8000;stroke-linecap:butt;stroke-miterlimit:10;" id="shape_8"/><text id="text_9" transform="matrix(1.0000,0.0000,0.0000,1.0000,692.8397,-18.24)" fill="#000000" text-anchor="middle" style="font-size:12px;font-family:Arial;">1.125</text><path d="M 693.8397164646146 -15L 693.8397164646146 345.00000000000006" style="fill:none;stroke:#ff8000;stroke-linecap:butt;stroke-miterlimit:10;" id="shape_9"/><text id="text_10" transform="matrix(1.0000,0.0000,0.0000,1.0000,769.8219,-18.24)" fill="#000000" text-anchor="middle" style="font-size:12px;font-family:Arial;">1.25</text><path d="M 770.8219071829052 -15L 770.8219071829052 345.00000000000006" style="fill:none;stroke:#ff8000;stroke-linecap:butt;stroke-miterlimit:10;" id="shape_10"/><text id="text_11" transform="matrix(1.0000,0.0000,0.0000,1.0000,846.8041,-18.24)" fill="#000000" text-anchor="middle" style="font-size:12px;font-family:Arial;">1.375</text><path d="M 847.8040979011957 -15L 847.8040979011957 345.00000000000006" style="fill:none;stroke:#ff8000;stroke-linecap:butt;stroke-miterlimit:10;" id="shape_11"/></g><g id="container_4"><g id="I11"><path d="M 245.49756108718506 194.99999999999997L 98.10491524636473 194.99999999999997M 245.49756108718506 209.99999999999997L 245.49756108718506 179.99999999999997" style="fill:none;stroke:#00ff00;stroke-width:2;stroke-linecap:round;stroke-miterlimit:10;" id="shape_12"/></g><g id="I7"><path d="M 378.9982779268693 135L 257.611854291706 135M 378.9982779268693 150L 378.9982779268693 120" style="fill:none;stroke:#00ff00;stroke-width:2;stroke-linecap:round;stroke-miterlimit:10;" id="shape_13"/></g><g id="I12"><path d="M 1004.9999999999999 179.99999999999997L 459.6519771877996 179.99999999999997" style="fill:none;stroke:#aaaaaa;stroke-width:0.3;stroke-linecap:round;stroke-miterlimit:10;stroke-dasharray:5,10;" id="shape_14"/><text id="text_12" transform="matrix(1.0000,0.0000,0.0000,1.0000,1005.0000,187.92)" fill="#000000" style="font-size:24px;font-family:Arial;">NC 001417</text><path d="M 459.6519771877996 179.99999999999997L 245.49756108718506 179.99999999999997" style="fill:none;stroke:#000000;stroke-width:2;stroke-linecap:round;stroke-miterlimit:10;" id="shape_15"/></g><g id="I4"><path d="M 1004.9999999999999 60L 644.1662421663384 60" style="fill:none;stroke:#aaaaaa;stroke-width:0.3;stroke-linecap:round;stroke-miterlimit:10;stroke-dasharray:5,10;" id="shape_16"/><text id="text_13" transform="matrix(1.0000,0.0000,0.0000,1.0000,1005.0000,67.92)" fill="#000000" style="font-size:24px;font-family:Arial;">NC 001628</text><path d="M 644.1662421663384 60L 47.00480833226656 60" style="fill:none;stroke:#000000;stroke-width:2;stroke-linecap:round;stroke-miterlimit:10;" id="shape_17"/></g><g id="I17"><path d="M 1004.9999999999999 300L 571.8078789584749 300" style="fill:none;stroke:#aaaaaa;stroke-width:0.3;stroke-linecap:round;stroke-miterlimit:10;stroke-dasharray:5,10;" id="shape_18"/><text id="text_14" transform="matrix(1.0000,0.0000,0.0000,1.0000,1005.0000,307.92)" fill="#000000" style="font-size:24px;font-family:Arial;">NC 019707</text><path d="M 571.8078789584749 300L 195.84767547471432 300" style="fill:none;stroke:#000000;stroke-width:2;stroke-linecap:round;stroke-miterlimit:10;" id="shape_19"/></g><g id="I13"><path d="M 1004.9999999999999 209.99999999999997L 491.4612093084302 209.99999999999997" style="fill:none;stroke:#aaaaaa;stroke-width:0.3;stroke-linecap:round;stroke-miterlimit:10;stroke-dasharray:5,10;" id="shape_20"/><text id="text_15" transform="matrix(1.0000,0.0000,0.0000,1.0000,1005.0000,217.92)" fill="#000000" style="font-size:24px;font-family:Arial;">NC 001426</text><path d="M 491.4612093084302 209.99999999999997L 245.49756108718506 209.99999999999997" style="fill:none;stroke:#000000;stroke-width:2;stroke-linecap:round;stroke-miterlimit:10;" id="shape_21"/></g><g id="I5"><path d="M 257.611854291706 112.49999999999999L 47.00480833226656 112.49999999999999M 257.611854291706 135L 257.611854291706 89.99999999999999" style="fill:none;stroke:#00ff00;stroke-width:2;stroke-linecap:round;stroke-miterlimit:10;" id="shape_22"/></g><g id="I19"><path d="M 1004.9999999999999 270L 542.0988072206928 270" style="fill:none;stroke:#aaaaaa;stroke-width:0.3;stroke-linecap:round;stroke-miterlimit:10;stroke-dasharray:5,10;" id="shape_23"/><text id="text_16" transform="matrix(1.0000,0.0000,0.0000,1.0000,1005.0000,277.92)" fill="#000000" style="font-size:24px;font-family:Arial;">NC 019920</text><path d="M 542.0988072206928 270L 170.08551144793532 270" style="fill:none;stroke:#000000;stroke-width:2;stroke-linecap:round;stroke-miterlimit:10;" id="shape_24"/></g><g id="I16"><path d="M 195.84767547471432 314.99999999999994L 170.08551144793532 314.99999999999994M 195.84767547471432 330L 195.84767547471432 300" style="fill:none;stroke:#bdff00;stroke-width:2;stroke-linecap:round;stroke-miterlimit:10;" id="shape_25"/></g><g id="I6"><path d="M 1004.9999999999999 89.99999999999999L 429.9317707459521 89.99999999999999" style="fill:none;stroke:#aaaaaa;stroke-width:0.3;stroke-linecap:round;stroke-miterlimit:10;stroke-dasharray:5,10;" id="shape_26"/><text id="text_17" transform="matrix(1.0000,0.0000,0.0000,1.0000,1005.0000,97.92)" fill="#000000" style="font-size:24px;font-family:Arial;">NC 001890</text><path d="M 429.9317707459521 89.99999999999999L 257.611854291706 89.99999999999999" style="fill:none;stroke:#000000;stroke-width:2;stroke-linecap:round;stroke-miterlimit:10;" id="shape_27"/></g><g id="I20"><path d="M 1004.9999999999999 239.99999999999994L 440.5998457227629 239.99999999999994" style="fill:none;stroke:#aaaaaa;stroke-width:0.3;stroke-linecap:round;stroke-miterlimit:10;stroke-dasharray:5,10;" id="shape_28"/><text id="text_18" transform="matrix(1.0000,0.0000,0.0000,1.0000,1005.0000,247.92)" fill="#000000" style="font-size:24px;font-family:Arial;">NC 019922</text><path d="M 440.5998457227629 239.99999999999994L 146.5441974033254 239.99999999999994" style="fill:none;stroke:#000000;stroke-width:2;stroke-linecap:round;stroke-miterlimit:10;" id="shape_29"/></g><g id="I0"><path d="M 0 79.21874999999999L 0 79.21874999999999M 0 158.43749999999997L 0 0" style="fill:none;stroke:#000000;stroke-width:2;stroke-linecap:round;stroke-miterlimit:10;" id="shape_30"/></g><g id="I15"><path d="M 170.08551144793532 292.49999999999994L 146.5441974033254 292.49999999999994M 170.08551144793532 314.99999999999994L 170.08551144793532 270" style="fill:none;stroke:#fff500;stroke-width:2;stroke-linecap:round;stroke-miterlimit:10;" id="shape_31"/></g><g id="I9"><path d="M 1004.9999999999999 150L 437.81437756098956 150" style="fill:none;stroke:#aaaaaa;stroke-width:0.3;stroke-linecap:round;stroke-miterlimit:10;stroke-dasharray:5,10;" id="shape_32"/><text id="text_19" transform="matrix(1.0000,0.0000,0.0000,1.0000,1005.0000,157.92)" fill="#000000" style="font-size:24px;font-family:Arial;">NC 004301</text><path d="M 437.81437756098956 150L 378.9982779268693 150" style="fill:none;stroke:#000000;stroke-width:2;stroke-linecap:round;stroke-miterlimit:10;" id="shape_33"/></g><g id="I14"><path d="M 146.5441974033254 266.24999999999994L 98.10491524636473 266.24999999999994M 146.5441974033254 292.49999999999994L 146.5441974033254 239.99999999999994" style="fill:none;stroke:#a3ff00;stroke-width:2;stroke-linecap:round;stroke-miterlimit:10;" id="shape_34"/></g><g id="I21"><path d="M 1004.9999999999999 30L 884.4885738659946 30" style="fill:none;stroke:#aaaaaa;stroke-width:0.3;stroke-linecap:round;stroke-miterlimit:10;stroke-dasharray:5,10;" id="shape_35"/><text id="text_20" transform="matrix(1.0000,0.0000,0.0000,1.0000,1005.0000,37.92)" fill="#000000" style="font-size:24px;font-family:Arial;">NC 002700</text><path d="M 884.4885738659946 30L 0 30" style="fill:none;stroke:#000000;stroke-width:2;stroke-linecap:round;stroke-miterlimit:10;" id="shape_36"/></g><g id="I3"><path d="M 47.00480833226656 86.25L 13.051542138653202 86.25M 47.00480833226656 112.49999999999999L 47.00480833226656 60" style="fill:none;stroke:#ffd100;stroke-width:2;stroke-linecap:round;stroke-miterlimit:10;" id="shape_37"/></g><g id="I8"><path d="M 1004.9999999999999 120L 413.07581801060303 120" style="fill:none;stroke:#aaaaaa;stroke-width:0.3;stroke-linecap:round;stroke-miterlimit:10;stroke-dasharray:5,10;" id="shape_38"/><text id="text_21" transform="matrix(1.0000,0.0000,0.0000,1.0000,1005.0000,127.92)" fill="#000000" style="font-size:24px;font-family:Arial;">NC 028902</text><path d="M 413.07581801060303 120L 378.9982779268693 120" style="fill:none;stroke:#000000;stroke-width:2;stroke-linecap:round;stroke-miterlimit:10;" id="shape_39"/></g><g id="I2"><path d="M 13.051542138653202 158.43749999999997L 0 158.43749999999997M 13.051542138653202 230.62499999999994L 13.051542138653202 86.25" style="fill:none;stroke:#ffc200;stroke-width:2;stroke-linecap:round;stroke-miterlimit:10;" id="shape_40"/></g><g id="I18"><path d="M 1004.9999999999999 330L 493.7400484352236 330" style="fill:none;stroke:#aaaaaa;stroke-width:0.3;stroke-linecap:round;stroke-miterlimit:10;stroke-dasharray:5,10;" id="shape_41"/><text id="text_22" transform="matrix(1.0000,0.0000,0.0000,1.0000,1005.0000,337.92)" fill="#000000" style="font-size:24px;font-family:Arial;">NC 008294</text><path d="M 493.7400484352236 330L 195.84767547471432 330" style="fill:none;stroke:#000000;stroke-width:2;stroke-linecap:round;stroke-miterlimit:10;" id="shape_42"/></g><g id="I10"><path d="M 98.10491524636473 230.62499999999994L 13.051542138653202 230.62499999999994M 98.10491524636473 266.24999999999994L 98.10491524636473 194.99999999999997" style="fill:none;stroke:#8fff00;stroke-width:2;stroke-linecap:round;stroke-miterlimit:10;" id="shape_43"/></g><g id="I1"><path d="M 1004.9999999999999 0L 999.9999999999999 0" style="fill:none;stroke:#aaaaaa;stroke-width:0.3;stroke-linecap:round;stroke-miterlimit:10;stroke-dasharray:5,10;" id="shape_44"/><text id="text_23" transform="matrix(1.0000,0.0000,0.0000,1.0000,1005.0000,7.92)" fill="#000000" style="font-size:24px;font-family:Arial;">NC 019453</text><path d="M 999.9999999999999 0L 0 0" style="fill:none;stroke:#000000;stroke-width:2;stroke-linecap:round;stroke-miterlimit:10;" id="shape_45"/></g></g><g id="container_5"/><g id="container_6"/><g id="container_7"/><g id="container_8"/><g id="container_9"/></g><g id="container_10" transform="matrix(1.0000,0.0000,0.0000,1.0000,100.0000,100.00)"/><g id="container_11" transform="matrix(1.0000,0.0000,0.0000,1.0000,45.0000,36.00)"><path d="M 0 -3L 0 3M 0 0L 61.58575257463241 0M 61.58575257463241 -3L 61.58575257463241 3" style="fill:none;stroke:#000;stroke-width:0.5;stroke-linecap:round;stroke-miterlimit:10;" id="shape_47" transform="matrix(0.6985,0.0000,0.0000,1.0000,105.7373,8.00)"/><text id="text_24" transform="matrix(1.0000,0.0000,0.0000,1.0000,0.0000,10.22)" fill="#555" style="font-weight:bold;font-size:14px;font-family:Arial;">Tree scale: 0.1</text></g></g></svg>